<?xml version="1.0" encoding="UTF-8"?>
<svg version="1.1" xmlns="http://www.w3.org/2000/svg" width="380" height="500">
<path d="M0 0 C125.4 0 250.8 0 380 0 C380 165 380 330 380 500 C254.6 500 129.2 500 0 500 C0 335 0 170 0 0 Z " fill="#FEFEFE" transform="translate(0,0)"/>
<path d="M0 0 C101.97 0 203.94 0 309 0 C304.05 12.375 304.05 12.375 299 25 C297.49170269 29.28365804 296.04027274 33.47480178 294.75 37.8125 C294.43337402 38.85962158 294.11674805 39.90674316 293.79052734 40.9855957 C288.72925878 58.21861656 284.69777829 76.09615619 283 94 C282.83564453 95.66289062 282.83564453 95.66289062 282.66796875 97.359375 C282.03160188 104.5885026 281.81192362 111.74679347 282 119 C282.01788574 119.7101123 282.03577148 120.42022461 282.05419922 121.15185547 C283.03242306 155.43253171 290.80490956 190.20921601 312.30859375 217.7734375 C319.83221052 227.67750576 321.49405663 237.85254531 320 250 C317.90518232 258.23030591 313.60694743 264.7306284 308 271 C307.17628906 271.96292969 307.17628906 271.96292969 306.3359375 272.9453125 C274.63370536 307.44069284 214.57815084 320.14309752 170.75244141 330.35595703 C169.01636992 330.7621799 167.28360457 331.18307088 165.55615234 331.62451172 C156.99612788 333.73912402 149.31770399 333.17690337 140.75 331.375 C139.89519043 331.1996875 139.04038086 331.024375 138.15966797 330.84375 C129.22506039 328.94463778 120.48215996 326.42829713 111.73706055 323.80688477 C108.63358023 322.89197954 105.51815302 322.02430943 102.40234375 321.15234375 C95.05212693 319.05697452 87.80378416 316.70267148 80.55883789 314.27319336 C78.43718113 313.56239317 76.31345315 312.8580598 74.18945312 312.15429688 C49.59608763 303.96666099 24.51771771 293.58352947 5 276 C4.21238281 275.29359375 3.42476562 274.5871875 2.61328125 273.859375 C-2.73907133 268.79896893 -6.65624907 263.55889605 -10 257 C-10.3403125 256.35546875 -10.680625 255.7109375 -11.03125 255.046875 C-14.6498395 247.07257592 -14.00173242 237.94448536 -11.25 229.8125 C-7.75419802 221.56240734 -2.45253853 214.38807927 2.60644531 207.03759766 C29.78289378 167.30132595 30.62424416 116.03290756 22.1628418 70.30126953 C18.95509873 54.0309029 14.23491462 38.24200292 8.875 22.5625 C8.56264404 21.64557373 8.25028809 20.72864746 7.9284668 19.78393555 C5.99124478 14.29050935 3.68589946 9.15933226 0.95751953 4.01147461 C0 2 0 2 0 0 Z " fill="#FEFDFD" transform="translate(32,83)"/>
<path d="M0 0 C2.84645389 2.50830373 5.63697882 5.02302165 8 8 C8 8.66 8 9.32 8 10 C8.66 10 9.32 10 10 10 C10.33 10.66 10.66 11.32 11 12 C11.66 10.68 12.32 9.36 13 8 C13.01417969 8.556875 13.02835938 9.11375 13.04296875 9.6875 C13.31023308 13.96372931 13.7608984 17.08251685 16.25 20.625 C18.86588998 24.38914401 20.33621793 28.35948915 21.75 32.6875 C21.96043945 33.32961426 22.17087891 33.97172852 22.38769531 34.63330078 C27.65359973 51.21098841 26.06008263 70.17347036 19 86 C16.525 90.455 16.525 90.455 14 95 C13.67 105.89 13.34 116.78 13 128 C-26.93 128 -66.86 128 -108 128 C-108.33 117.11 -108.66 106.22 -109 95 C-111.31 90.38 -113.62 85.76 -116 81 C-117.18324845 77.25304658 -118.21525992 73.80441989 -119 70 C-119.226875 68.906875 -119.45375 67.81375 -119.6875 66.6875 C-121.0642142 50.44227242 -119.42414626 33.52270642 -110.38671875 19.49609375 C-108.85587588 16.74057659 -108.52077558 14.81163371 -108.3125 11.6875 C-108.24675781 10.80449219 -108.18101563 9.92148438 -108.11328125 9.01171875 C-108.07589844 8.34785156 -108.03851563 7.68398437 -108 7 C-107.05125 7.020625 -106.1025 7.04125 -105.125 7.0625 C-101.16730134 6.50952813 -99.27480505 4.66694056 -96.4375 1.9375 C-69.45081275 -23.70392943 -28.42187769 -22.24963637 0 0 Z " fill="#403D3E" transform="translate(233,148)"/>
<path d="M0 0 C101.97 0 203.94 0 309 0 C304.05 12.375 304.05 12.375 299 25 C297.49170269 29.28365804 296.04027274 33.47480178 294.75 37.8125 C294.43337402 38.85962158 294.11674805 39.90674316 293.79052734 40.9855957 C288.72925878 58.21861656 284.69777829 76.09615619 283 94 C282.83564453 95.66289062 282.83564453 95.66289062 282.66796875 97.359375 C282.03160188 104.5885026 281.81192362 111.74679347 282 119 C282.01788574 119.7101123 282.03577148 120.42022461 282.05419922 121.15185547 C283.03242306 155.43253171 290.80490956 190.20921601 312.30859375 217.7734375 C319.83221052 227.67750576 321.49405663 237.85254531 320 250 C317.90518232 258.23030591 313.60694743 264.7306284 308 271 C307.17628906 271.96292969 307.17628906 271.96292969 306.3359375 272.9453125 C274.63370536 307.44069284 214.57815084 320.14309752 170.75244141 330.35595703 C169.01636992 330.7621799 167.28360457 331.18307088 165.55615234 331.62451172 C156.99612788 333.73912402 149.31770399 333.17690337 140.75 331.375 C139.89519043 331.1996875 139.04038086 331.024375 138.15966797 330.84375 C129.22506039 328.94463778 120.48215996 326.42829713 111.73706055 323.80688477 C108.63358023 322.89197954 105.51815302 322.02430943 102.40234375 321.15234375 C95.05212693 319.05697452 87.80378416 316.70267148 80.55883789 314.27319336 C78.43718113 313.56239317 76.31345315 312.8580598 74.18945312 312.15429688 C49.59608763 303.96666099 24.51771771 293.58352947 5 276 C4.21238281 275.29359375 3.42476562 274.5871875 2.61328125 273.859375 C-2.73907133 268.79896893 -6.65624907 263.55889605 -10 257 C-10.3403125 256.35546875 -10.680625 255.7109375 -11.03125 255.046875 C-14.6498395 247.07257592 -14.00173242 237.94448536 -11.25 229.8125 C-7.75419802 221.56240734 -2.45253853 214.38807927 2.60644531 207.03759766 C29.78289378 167.30132595 30.62424416 116.03290756 22.1628418 70.30126953 C18.95509873 54.0309029 14.23491462 38.24200292 8.875 22.5625 C8.56264404 21.64557373 8.25028809 20.72864746 7.9284668 19.78393555 C5.99124478 14.29050935 3.68589946 9.15933226 0.95751953 4.01147461 C0 2 0 2 0 0 Z M6 5 C6.79053176 6.45894885 7.58256051 7.91708646 8.375 9.375 C9.20064453 10.90253906 9.20064453 10.90253906 10.04296875 12.4609375 C11.3941033 14.93370264 12.79962676 17.36625837 14.23828125 19.7890625 C36.49311158 57.72979842 51.20425627 108.48796165 40.32421875 152.359375 C33.15255157 178.40007888 19.48285248 197.9982429 0.890625 217.17578125 C-4.59820106 223.02818339 -8.10055869 229.46821256 -8.4375 237.625 C-7.78009961 248.66545952 -1.31923238 255.00849284 6.47265625 262.3203125 C29.48007794 282.23925677 61.83174174 291.97949982 89.78125 302.796875 C92.4048073 303.81273785 95.02836077 304.82861049 97.65185547 305.84463501 C99.42159137 306.52998546 101.19144764 307.21502515 102.96142578 307.89974976 C116.13266737 313.00263149 129.15756058 318.36689544 142.06567383 324.10302734 C143.19513428 324.60398926 144.32459473 325.10495117 145.48828125 325.62109375 C146.95068237 326.27742798 146.95068237 326.27742798 148.44262695 326.94702148 C152.61389942 328.82305036 152.61389942 328.82305036 156.91015625 328.28515625 C157.62042969 327.88167969 158.33070313 327.47820312 159.0625 327.0625 C164.00059867 324.44050071 169.0329847 322.2151206 174.1875 320.0625 C175.0122583 319.71791748 175.8370166 319.37333496 176.68676758 319.01831055 C182.89882361 316.43617989 189.13275792 313.9123387 195.38671875 311.43359375 C197.85179581 310.45555777 200.31255405 309.47050664 202.76953125 308.47265625 C208.88660534 305.99388819 215.01611186 303.61290262 221.25 301.4375 C226.40606828 299.62622124 231.32489749 297.54938069 236.26953125 295.23046875 C239.06268932 293.97174945 241.87932529 292.88196705 244.75 291.8125 C265.56313891 283.87779978 287.30098768 275.16908332 304 260 C304.65097656 259.44054687 305.30195313 258.88109375 305.97265625 258.3046875 C311.94605963 252.85126191 316.1788021 246.17421491 316.5625 237.9375 C315.90790317 226.63243575 308.49326565 218.35918062 300.75 210.8125 C275.47334093 186.06897679 264.80779375 153.6490234 263.99609375 118.83544922 C264.01121353 107.86037774 265.44120009 96.66699711 268 86 C268.29285959 84.68385862 268.58439689 83.36742269 268.875 82.05078125 C271.4656581 70.47762145 274.65686217 59.50405307 279.73828125 48.74609375 C280.97680102 46.05049189 282.05095621 43.32709647 283.125 40.5625 C287.37700132 30.22456708 292.91978522 19.75422171 299.33984375 10.5859375 C301.27012176 8.09140857 301.27012176 8.09140857 301 5 C287.29610659 4.66255803 273.68129941 5.36184157 260.0090332 6.20068359 C228.12562256 8.12321974 196.23938901 8.18798684 164.30908203 8.18530273 C159.30546407 8.18522205 154.3019388 8.1920881 149.29833984 8.20581055 C110.74604745 8.30984014 72.27231101 7.61969504 33.78235245 5.31070423 C27.80842945 4.95906148 21.85727068 4.88171125 15.875 4.9375 C14.42287109 4.94426758 14.42287109 4.94426758 12.94140625 4.95117188 C10.62752818 4.96262672 8.31380568 4.97882324 6 5 Z " fill="#C51A21" transform="translate(32,83)"/>
<path d="M0 0 C2.84645389 2.50830373 5.63697882 5.02302165 8 8 C8 8.66 8 9.32 8 10 C8.66 10 9.32 10 10 10 C10.33 10.66 10.66 11.32 11 12 C11.66 10.68 12.32 9.36 13 8 C13.01417969 8.556875 13.02835938 9.11375 13.04296875 9.6875 C13.31023308 13.96372931 13.7608984 17.08251685 16.25 20.625 C18.86588998 24.38914401 20.33621793 28.35948915 21.75 32.6875 C21.96043945 33.32961426 22.17087891 33.97172852 22.38769531 34.63330078 C27.65359973 51.21098841 26.06008263 70.17347036 19 86 C16.525 90.455 16.525 90.455 14 95 C13.67 105.89 13.34 116.78 13 128 C-26.6 128 -66.2 128 -107 128 C-107 127.67 -107 127.34 -107 127 C-94.13 126.67 -81.26 126.34 -68 126 C-70.31 125.01 -72.62 124.02 -75 123 C-71.09695093 121.49372621 -68.61035282 122.62868175 -64.75 123.9375 C-57.38924943 126.10263917 -50.54990621 126.27749632 -42.92089844 126.13256836 C-31.43852164 125.92205225 -19.97929009 126.21525113 -8.5 126.5 C-6.47632243 126.54859116 -4.45264086 126.59701563 -2.42895508 126.64526367 C2.38078948 126.76014148 7.19036621 126.88018706 12 127 C11.67 118.09 11.34 109.18 11 100 C9.02 100.99 9.02 100.99 7 102 C7.64874084 101.14522064 8.29748169 100.29044128 8.96588135 99.40975952 C11.2003993 95.66407396 11.51186965 93.74848879 11.54589844 89.44384766 C11.56561707 88.16297272 11.58533569 86.88209778 11.60565186 85.56240845 C11.60731464 84.17962691 11.6085457 82.79684479 11.609375 81.4140625 C11.62436819 79.9877231 11.64109773 78.561401 11.65948486 77.13510132 C11.70304374 73.39674043 11.72313164 69.65861369 11.73822021 65.92004395 C11.75783302 62.09889954 11.79979817 58.27800648 11.83984375 54.45703125 C11.91502136 46.97142193 11.96538768 39.48591851 12 32 C11.34 32 10.68 32 10 32 C10 31.34 10 30.68 10 30 C9.38993607 30.01474869 8.77987213 30.02949738 8.15132141 30.04469299 C1.74256391 30.19833996 -4.66635605 30.34280234 -11.07543945 30.48217773 C-13.46025749 30.53520951 -15.84502644 30.59050274 -18.22973633 30.64819336 C-21.67778945 30.73120071 -25.12594322 30.80579479 -28.57421875 30.87890625 C-29.62268478 30.90594131 -30.67115082 30.93297638 -31.75138855 30.96083069 C-39.2216543 31.10800061 -46.5616692 30.68918406 -54 30 C-54.23074219 30.99257812 -54.46148437 31.98515625 -54.69921875 33.0078125 C-56.90261424 42.26115739 -59.61036067 51.10914275 -63 60 C-64.384434 56.25065467 -63.58310003 53.86596318 -62.34765625 50.140625 C-62.02031494 49.13547852 -61.69297363 48.13033203 -61.35571289 47.09472656 C-60.92895264 45.8259668 -60.50219238 44.55720703 -60.0625 43.25 C-58.0515625 37.18625 -58.0515625 37.18625 -56 31 C-72.17 31 -88.34 31 -105 31 C-105 30.67 -105 30.34 -105 30 C-88.83 29.67 -72.66 29.34 -56 29 C-52.535 19.1 -52.535 19.1 -49 9 C-56.33290134 9.01938513 -63.66459673 9.07099795 -70.99707031 9.15258789 C-73.49179515 9.17579539 -75.98661835 9.19017001 -78.48144531 9.19555664 C-82.06638077 9.20482557 -85.64976317 9.24577468 -89.234375 9.29296875 C-90.90956207 9.28706978 -90.90956207 9.28706978 -92.61859131 9.28105164 C-98.69258707 9.26811543 -98.69258707 9.26811543 -103.70166016 12.32446289 C-105.3598113 15.74147651 -105.53785077 18.46297003 -105.625 22.25 C-105.68575613 24.50265037 -105.79439149 26.75593001 -106 29 C-106.99 29.495 -106.99 29.495 -108 30 C-108.33 27.36 -108.66 24.72 -109 22 C-111.4119355 25.70059818 -112.86053144 29.21098895 -114.125 33.4375 C-114.62386719 35.07525391 -114.62386719 35.07525391 -115.1328125 36.74609375 C-120.09026781 55.34771659 -116.6743539 72.73270371 -109 90 C-108.67 70.53 -108.34 51.06 -108 31 C-107.01 31.33 -106.02 31.66 -105 32 C-105.33 52.46 -105.66 72.92 -106 94 C-110 93 -110 93 -111.59765625 90.6640625 C-120.47159744 72.25359251 -122.41591183 53.86547896 -117 34 C-115.21917453 28.92839347 -113.30514083 24.02565442 -110.38671875 19.49609375 C-108.85587588 16.74057659 -108.52077558 14.81163371 -108.3125 11.6875 C-108.24675781 10.80449219 -108.18101563 9.92148438 -108.11328125 9.01171875 C-108.07589844 8.34785156 -108.03851563 7.68398437 -108 7 C-107.05125 7.020625 -106.1025 7.04125 -105.125 7.0625 C-101.16730134 6.50952813 -99.27480505 4.66694056 -96.4375 1.9375 C-69.45081275 -23.70392943 -28.42187769 -22.24963637 0 0 Z " fill="#656263" transform="translate(233,148)"/>
<path d="M0 0 C4.29 0 8.58 0 13 0 C14.73824946 5.16098809 16.46176854 10.32653061 18.16992188 15.49755859 C18.70606543 17.11387372 19.2461536 18.72888816 19.79101562 20.34228516 C20.5176739 22.49550318 21.22919807 24.65318589 21.9375 26.8125 C22.27237427 27.78799805 22.27237427 27.78799805 22.61401367 28.78320312 C23.83608885 32.56910363 24.48838852 35.25462888 23 39 C21.31731429 41.0209428 19.70394874 42.76574829 17.8125 44.5625 C17.34263672 45.03107422 16.87277344 45.49964844 16.38867188 45.98242188 C13.15039611 49.14117654 9.80617081 51.60352208 6 54 C3.55752805 51.75534809 1.12193604 49.50336228 -1.3125 47.25 C-2.00279297 46.61578125 -2.69308594 45.9815625 -3.40429688 45.328125 C-4.07138672 44.709375 -4.73847656 44.090625 -5.42578125 43.453125 C-6.34484253 42.60476074 -6.34484253 42.60476074 -7.2824707 41.73925781 C-9 40 -9 40 -10.60131836 37.84790039 C-12.22244114 35.70611677 -13.60516796 35.14714283 -16 34 C-17.29410718 32.81736003 -18.54196483 31.58293368 -19.75 30.3125 C-22.39009289 27.59920676 -25.05914152 25.02145694 -27.9375 22.5625 C-31.73922756 19.2964366 -35.2350738 15.78469067 -38.75 12.21484375 C-41.53998745 9.46844985 -44.47107716 6.92606024 -47.46875 4.41015625 C-49 3 -49 3 -50 1 C-34.16 1 -18.32 1 -2 1 C-3.33434776 7.00456492 -4.74757514 12.73920837 -6.625 18.5625 C-6.85445312 19.28501953 -7.08390625 20.00753906 -7.3203125 20.75195312 C-7.87674781 22.50240588 -8.43786364 24.25136973 -9 26 C-7.40452361 23.00466119 -6.2893547 20.03275942 -5.2734375 16.796875 C-4.9640625 15.8171875 -4.6546875 14.8375 -4.3359375 13.828125 C-3.86027344 12.30445313 -3.86027344 12.30445313 -3.375 10.75 C-3.05015625 9.71875 -2.7253125 8.6875 -2.390625 7.625 C-1.59076583 5.08427087 -0.79498698 2.54225784 0 0 Z " fill="#FDFCFC" transform="translate(179,178)"/>
<path d="M0 0 C0.25641131 8.13687019 0.45107129 16.27201697 0.56993389 24.41194534 C0.62702501 28.19308732 0.70425398 31.97144011 0.82983398 35.75097656 C0.9505704 39.40819791 1.01536506 43.06276243 1.04364967 46.72182465 C1.06376565 48.10787518 1.1030497 49.49380206 1.16303062 50.87870026 C1.4672045 58.2022107 1.02174279 63.54392561 -3.81844616 69.14619064 C-6.11585061 71.56101347 -8.50389742 73.78813499 -11 76 C-11.70365189 76.64632385 -12.40730377 77.29264771 -13.13227844 77.95855713 C-14.70880938 79.35930794 -16.34992823 80.68667757 -18 82 C-18.763125 82.61875 -19.52625 83.2375 -20.3125 83.875 C-22 85 -22 85 -24 85 C-25.65603984 80.05681507 -27.31000878 75.1129436 -28.9621582 70.16845703 C-29.52312891 68.49053776 -30.08464061 66.81279925 -30.64672852 65.13525391 C-32.2239134 60.42753228 -33.79059291 55.71660665 -35.33990479 50.99963379 C-35.91516123 49.25700302 -36.50222164 47.51827762 -37.09130859 45.78027344 C-37.37441895 44.91176758 -37.6575293 44.04326172 -37.94921875 43.1484375 C-38.18342529 42.44638184 -38.41763184 41.74432617 -38.65893555 41.02099609 C-39.10403331 38.38354493 -38.78538622 36.55186649 -38 34 C-36.69995117 32.32177734 -36.69995117 32.32177734 -35.04296875 30.8359375 C-34.43090576 30.27672607 -33.81884277 29.71751465 -33.18823242 29.14135742 C-32.52799072 28.55845947 -31.86774902 27.97556152 -31.1875 27.375 C-30.51114502 26.76180908 -29.83479004 26.14861816 -29.13793945 25.5168457 C-27.75613605 24.26507909 -26.37030866 23.01773996 -24.98046875 21.77490234 C-22.68738114 19.71982999 -20.42247673 17.63595043 -18.16064453 15.54663086 C-15.78363953 13.3535936 -13.39094077 11.1778207 -11 9 C-10.03320312 8.11570313 -9.06640625 7.23140625 -8.0703125 6.3203125 C-7.16023438 5.49273437 -6.25015625 4.66515625 -5.3125 3.8125 C-4.50425781 3.07644531 -3.69601563 2.34039062 -2.86328125 1.58203125 C-1 0 -1 0 0 0 Z " fill="#FDFCFC" transform="translate(245,180)"/>
<path d="M0 0 C2.78139134 1.34059035 4.80331915 2.56659347 6.953125 4.79296875 C7.75242432 5.60967041 7.75242432 5.60967041 8.56787109 6.44287109 C9.12297363 7.01859863 9.67807617 7.59432617 10.25 8.1875 C14.44122785 12.46299716 18.66660318 16.57627665 23.234375 20.453125 C25.72270669 22.63316781 28.00746938 24.9961125 30.32421875 27.35546875 C32.755136 29.74105421 35.34768712 31.86521159 38 34 C36.78794464 40.76502521 35.13024873 47.20890273 32.9609375 53.7265625 C32.67521881 54.60025482 32.38950012 55.47394714 32.09512329 56.37411499 C31.1937752 59.12620403 30.28454358 61.87561004 29.375 64.625 C28.75728604 66.50633764 28.14009382 68.38784667 27.5234375 70.26953125 C26.021641 74.84835495 24.51277538 79.42479242 23 84 C15.43799535 79.78987837 15.43799535 79.78987837 12.83203125 77.4140625 C12.33123047 76.95773437 11.83042969 76.50140625 11.31445312 76.03125 C10.81880859 75.5671875 10.32316406 75.103125 9.8125 74.625 C9.30525391 74.16867188 8.79800781 73.71234375 8.27539062 73.2421875 C0.34012226 65.91415757 0.34012226 65.91415757 -0.34672546 60.02926636 C-0.46360561 56.22641785 -0.45008866 52.43585303 -0.390625 48.6328125 C-0.38315652 47.22892058 -0.37746646 45.82501817 -0.37347412 44.42111206 C-0.35826516 40.74164608 -0.31902582 37.06282045 -0.2746582 33.38360596 C-0.23360214 29.6230129 -0.21544118 25.86231549 -0.1953125 22.1015625 C-0.15252559 14.73408435 -0.08433348 7.3671322 0 0 Z " fill="#FEFEFE" transform="translate(127,181)"/>
<path d="M0 0 C7.35974462 5.89917675 7.35974462 5.89917675 8.71875 8.6171875 C-24.94125 8.6171875 -58.60125 8.6171875 -93.28125 8.6171875 C-70.70448727 -18.47492778 -27.67775449 -20.7416826 0 0 Z " fill="#FEFDFD" transform="translate(228.28125,146.3828125)"/>
<path d="M0 0 C5.05518559 1.47247521 7.79513053 4.48353268 11.3125 8.1875 C12.46551997 9.37297198 13.62045905 10.55658051 14.77734375 11.73828125 C15.33147949 12.30498535 15.88561523 12.87168945 16.45654297 13.45556641 C18.92510578 15.9256911 21.55651455 18.18136826 24.21875 20.4375 C26.79835073 22.70030766 29.17405403 25.14797232 31.5546875 27.6171875 C32.97109777 29.10854485 32.97109777 29.10854485 35 30 C35 30.66 35 31.32 35 32 C20.27178198 40.77425754 1.77735691 42.30926111 -14.66064453 38.39819336 C-21.20761759 36.71875244 -26.53844224 35.07656943 -32 31 C-28.9608387 27.27702741 -25.96526862 23.86032078 -22.3046875 20.7421875 C-17.97199935 16.99973082 -13.79030098 13.11444886 -9.625 9.1875 C-8.91472656 8.52041016 -8.20445312 7.85332031 -7.47265625 7.16601562 C-3.69936626 3.62124093 -3.69936626 3.62124093 0 0 Z " fill="#FDFCFC" transform="translate(184,235)"/>
<path d="M0 0 C2.19214501 0.06567402 4.3761515 0.06160659 6.5690918 0.0480957 C14.27233948 0.13607174 18.53736966 0.38885873 24.12963867 5.87817383 C27.0047714 10.14932476 26.77300087 14.91173153 26.12963867 19.87817383 C23.51643028 25.01126174 20.59026626 28.05796463 15.12963867 29.87817383 C10.69680166 30.16622678 6.25827456 30.15592316 1.81713867 30.19067383 C0.59317383 30.21967773 -0.63079102 30.24868164 -1.8918457 30.27856445 C-13.13705359 30.35805749 -13.13705359 30.35805749 -17.87036133 25.87817383 C-21.09331389 21.473472 -21.33232182 17.13509726 -21.65942383 11.85473633 C-18.64134565 0.46970873 -10.26682427 -0.32642526 0 0 Z " fill="#FCFCFC" transform="translate(224.870361328125,308.121826171875)"/>
<path d="M0 0 C2.07229211 -0.00436681 4.14244072 -0.04069138 6.21435547 -0.07861328 C8.18855469 -0.08441406 8.18855469 -0.08441406 10.20263672 -0.09033203 C11.40259277 -0.0985498 12.60254883 -0.10676758 13.83886719 -0.11523438 C17.90083024 0.47008832 20.03232895 1.81736729 23.21044922 4.37060547 C26.4662827 9.25435569 25.77920239 14.66200881 25.21044922 20.37060547 C23.04935751 25.01295061 20.73558643 27.11204283 16.21044922 29.37060547 C13.15185547 29.75878906 13.15185547 29.75878906 9.77294922 29.76904297 C7.93603516 29.77484375 7.93603516 29.77484375 6.06201172 29.78076172 C4.79099609 29.76916016 3.51998047 29.75755859 2.21044922 29.74560547 C0.93943359 29.75720703 -0.33158203 29.76880859 -1.64111328 29.78076172 C-2.86572266 29.77689453 -4.09033203 29.77302734 -5.35205078 29.76904297 C-6.46708984 29.76565918 -7.58212891 29.76227539 -8.73095703 29.75878906 C-13.34794681 29.17282053 -15.9046536 27.27941879 -19.10205078 23.99560547 C-21.5976281 18.63473567 -21.779452 13.18627513 -20.78955078 7.37060547 C-15.5140221 -0.85505438 -9.04104808 -0.00213585 0 0 Z " fill="#FDFCFC" transform="translate(287.78955078125,308.62939453125)"/>
<path d="M0 0 C7.29536461 -0.17770686 14.59016999 -0.30016546 21.88720703 -0.38452148 C24.36853899 -0.41969124 26.84972623 -0.46743632 29.33056641 -0.52807617 C32.90042832 -0.61314096 36.46837094 -0.65272507 40.0390625 -0.68359375 C41.14553131 -0.71972275 42.25200012 -0.75585175 43.39199829 -0.79307556 C48.28636041 -0.79556227 52.06584159 -0.75056284 55.74755859 2.73022461 C58 7 58 7 58 20 C40.84 20 23.68 20 6 20 C0 3 0 3 0 0 Z " fill="#FEFEFE" transform="translate(187,157)"/>
<path d="M0 0 C1.1471196 0.00848969 2.2942392 0.01697937 3.47612 0.02572632 C7.13478067 0.05927444 10.79122586 0.1345642 14.44921875 0.2109375 C16.93160877 0.24103492 19.41403337 0.2684111 21.89648438 0.29296875 C27.97731656 0.35907067 34.05685938 0.45943611 40.13671875 0.5859375 C38.73376477 7.71762022 36.67995553 13.59203636 34.13671875 20.5859375 C17.30671875 20.5859375 0.47671875 20.5859375 -16.86328125 20.5859375 C-16.86328125 6.5859375 -16.86328125 6.5859375 -15.10473633 2.74755859 C-10.18132836 -0.53570225 -5.78965763 -0.16128787 0 0 Z " fill="#FEFEFE" transform="translate(143.86328125,156.4140625)"/>
<path d="M0 0 C16.17 0 32.34 0 49 0 C47.35 1.65 45.7 3.3 44 5 C43.28199219 5.72960937 42.56398437 6.45921875 41.82421875 7.2109375 C37.69915573 11.38878926 33.49684598 15.36551934 29.03515625 19.1796875 C26.73396808 21.23794794 24.59290794 23.41488627 22.4375 25.625 C18.86065752 29.25773065 15.25114398 32.19605397 11 35 C8.33548849 28.12438356 6.05493552 21.14832428 3.8125 14.125 C3.26045898 12.41570312 3.26045898 12.41570312 2.69726562 10.671875 C2.34986328 9.58648437 2.00246094 8.50109375 1.64453125 7.3828125 C1.32846924 6.39684082 1.01240723 5.41086914 0.68676758 4.39501953 C0 2 0 2 0 0 Z " fill="#FDFDFD" transform="translate(194,179)"/>
<path d="M0 0 C1.0709919 -0.01210762 1.0709919 -0.01210762 2.16362 -0.02445984 C3.67407825 -0.03827755 5.18456743 -0.04901004 6.69506836 -0.05688477 C8.2342244 -0.06840127 9.77334061 -0.08884823 11.31225586 -0.1184082 C13.54177862 -0.16122384 15.77011643 -0.17727197 18 -0.1875 C19.02218376 -0.21376213 19.02218376 -0.21376213 20.0650177 -0.24055481 C26.54557582 -0.21141123 30.0112234 2.5502859 34.44921875 6.98828125 C38.26247756 12.49632175 39.29757016 17.69406609 38.171875 24.29296875 C36.5726286 30.87499112 33.71478834 35.61134308 27.99707031 39.35180664 C22.94666218 41.30017383 17.10389489 40.6505445 11.73779297 40.66381836 C9.46991578 40.67567306 7.20479995 40.7248363 4.9375 40.77539062 C-8.18781662 40.92290987 -8.18781662 40.92290987 -13.90161133 36.62182617 C-18.74285967 31.83464167 -20.45148657 27.2013942 -20.61328125 20.55078125 C-20.54283787 14.06999031 -19.3387238 9.41106721 -14.8046875 4.67578125 C-10.04657408 0.49908319 -6.07432698 0.06526368 0 0 Z M-13.26293945 12.13305664 C-15.46846963 16.60689496 -15.20431838 20.4265875 -14.30078125 25.23828125 C-12.60428358 30.1581245 -9.96568816 32.96293978 -5.30078125 35.23828125 C-2.31173102 35.69516055 -2.31173102 35.69516055 0.8828125 35.63671875 C2.6452832 35.64251953 2.6452832 35.64251953 4.44335938 35.6484375 C6.27157227 35.63103516 6.27157227 35.63103516 8.13671875 35.61328125 C9.95913086 35.63068359 9.95913086 35.63068359 11.81835938 35.6484375 C12.99462891 35.64457031 14.17089844 35.64070313 15.3828125 35.63671875 C16.45072021 35.63333496 17.51862793 35.62995117 18.61889648 35.62646484 C23.49569526 35.01188847 26.73267695 33.30931405 30.01171875 29.67578125 C33.27596026 24.96076574 33.33180206 20.87953786 32.69921875 15.23828125 C30.66707334 11.24656706 28.53886869 8.52906234 24.69921875 6.23828125 C20.18600895 5.59507244 15.66292325 5.59620922 11.11010742 5.57250977 C8.90193928 5.55093 6.70077589 5.47076433 4.49414062 5.38867188 C-3.05121783 5.24403772 -8.66846439 5.36640209 -13.26293945 12.13305664 Z " fill="#2E2B2C" transform="translate(218.30078125,302.76171875)"/>
<path d="M0 0 C2.22345129 -0.00965354 4.44595724 -0.04064984 6.66918945 -0.07226562 C8.09561628 -0.07880128 9.5220497 -0.08404954 10.94848633 -0.08789062 C12.88534302 -0.10190918 12.88534302 -0.10190918 14.86132812 -0.11621094 C19.58322197 0.3386261 23.55677819 1.56099841 27.26879883 4.66992188 C32.59801906 11.63745362 33.45738009 17.61996399 32.56176758 26.24023438 C30.84856592 32.17803559 27.58279651 35.78827698 22.56176758 39.24023438 C17.16301533 41.12945963 11.05857993 40.50365738 5.39990234 40.53540039 C3.97141611 40.5469139 2.5429727 40.56735629 1.11474609 40.59692383 C-13.61590866 40.90150823 -13.61590866 40.90150823 -19.43823242 36.24023438 C-25.18675305 30.18098291 -25.89722793 24.51648586 -25.75073242 16.40429688 C-25.17436534 10.56858013 -22.71196084 7.18177815 -18.31323242 3.36523438 C-12.62019637 -0.84266184 -6.82367221 0.0179354 0 0 Z M-17.43823242 10.24023438 C-20.6940659 15.12398459 -20.00698559 20.53163772 -19.43823242 26.24023438 C-17.27630795 30.88436842 -14.96198838 32.97695362 -10.43823242 35.24023438 C-5.81045906 35.8547706 -1.16508095 35.70384523 3.49926758 35.67773438 C4.7619043 35.69771484 6.02454102 35.71769531 7.32543945 35.73828125 C16.32366584 35.87206167 16.32366584 35.87206167 23.56176758 31.24023438 C26.54379274 27.45753861 26.99369978 24.50626537 26.99926758 19.74023438 C27.01860352 18.63679688 27.03793945 17.53335937 27.05786133 16.39648438 C26.45420823 12.5559198 25.29256205 10.96622956 22.56176758 8.24023438 C17.5694765 4.99151958 11.50945668 5.86827355 5.7722168 5.86962891 C3.69992469 5.8652621 1.62977608 5.82893753 -0.44213867 5.79101562 C-1.75827148 5.78714844 -3.0744043 5.78328125 -4.43041992 5.77929688 C-5.63037598 5.7710791 -6.83033203 5.76286133 -8.06665039 5.75439453 C-12.12861344 6.33971723 -14.26011216 7.6869962 -17.43823242 10.24023438 Z " fill="#2E2A2B" transform="translate(286.438232421875,302.759765625)"/>
<path d="M0 0 C0.90063171 0.00015106 1.80126343 0.00030212 2.72918701 0.00045776 C4.1746994 0.01594162 4.1746994 0.01594162 5.64941406 0.03173828 C7.13915741 0.03598312 7.13915741 0.03598312 8.65899658 0.04031372 C11.8278005 0.05149935 14.99632071 0.07660116 18.16503906 0.10205078 C20.31477456 0.11208266 22.46451449 0.12120815 24.61425781 0.12939453 C29.88128152 0.15143337 35.14814002 0.18489494 40.41503906 0.22705078 C40.41503906 2.20705078 40.41503906 4.18705078 40.41503906 6.22705078 C38.46283447 6.24106934 38.46283447 6.24106934 36.47119141 6.25537109 C31.62905011 6.29533125 26.78754013 6.36110735 21.94580078 6.43457031 C19.8527845 6.46274491 17.75966252 6.48397687 15.66650391 6.49804688 C12.65244569 6.51952472 9.63965369 6.56620066 6.62597656 6.61767578 C5.69449799 6.61890442 4.76301941 6.62013306 3.80331421 6.62139893 C-1.94728744 6.75018841 -5.16331761 7.47240859 -9.58496094 11.22705078 C-12.16037336 14.7835727 -11.91185871 17.51533521 -12.58496094 22.22705078 C4.90503906 22.22705078 22.39503906 22.22705078 40.41503906 22.22705078 C40.41503906 24.20705078 40.41503906 26.18705078 40.41503906 28.22705078 C22.92503906 28.22705078 5.43503906 28.22705078 -12.58496094 28.22705078 C-12.58496094 32.51705078 -12.58496094 36.80705078 -12.58496094 41.22705078 C-14.56496094 41.22705078 -16.54496094 41.22705078 -18.58496094 41.22705078 C-18.73116281 36.89407698 -18.81933824 32.5617444 -18.89746094 28.22705078 C-18.93935547 27.00630859 -18.98125 25.78556641 -19.02441406 24.52783203 C-19.12483489 17.09669095 -18.65369119 11.89177459 -13.58496094 6.22705078 C-9.390946 2.33991499 -5.7823646 -0.03248519 0 0 Z " fill="#C62127" transform="translate(78.5849609375,301.77294921875)"/>
<path d="M0 0 C1.98 0 3.96 0 6 0 C6.33 5.28 6.66 10.56 7 16 C8.98 15.01 10.96 14.02 13 13 C16.5234375 12.61181641 16.5234375 12.61181641 20.375 12.6015625 C21.06255371 12.59869232 21.75010742 12.59582214 22.45849609 12.59286499 C23.90397979 12.59083459 25.34949162 12.59629249 26.79492188 12.60888672 C28.99412083 12.62495704 31.19148248 12.60900518 33.390625 12.58984375 C34.80208735 12.59182637 36.21354856 12.59567043 37.625 12.6015625 C39.53152344 12.60663818 39.53152344 12.60663818 41.4765625 12.61181641 C46.09908087 13.12108776 49.4703679 14.56015763 52.86328125 17.75390625 C53.34152344 18.35074219 53.81976563 18.94757813 54.3125 19.5625 C55.04919922 20.46162109 55.04919922 20.46162109 55.80078125 21.37890625 C58.29144658 24.74576655 58.11634031 27.1724508 58.09765625 31.3203125 C58.09443359 32.57714844 58.09121094 33.83398438 58.08789062 35.12890625 C58.07532227 37.10697266 58.07532227 37.10697266 58.0625 39.125 C58.05748489 40.46484211 58.05292201 41.804686 58.04882812 43.14453125 C58.03701086 46.42973206 58.02053617 49.71484397 58 53 C56.35 53 54.7 53 53 53 C52.98541748 52.30438965 52.97083496 51.6087793 52.95581055 50.89208984 C52.88102031 47.71918662 52.78446188 44.54729992 52.6875 41.375 C52.65366211 39.73337891 52.65366211 39.73337891 52.61914062 38.05859375 C52.37864573 30.84374699 51.93756979 25.98727486 46.69140625 20.65234375 C41.48216462 17.5499581 34.77039721 18.4701979 28.9375 18.5625 C27.67099609 18.55541016 26.40449219 18.54832031 25.09960938 18.54101562 C17.08576361 18.57941074 17.08576361 18.57941074 10 22 C9.34 22 8.68 22 8 22 C6.94044752 25.51424524 6.80001859 28.85655874 6.68359375 32.515625 C6.64169922 33.76601563 6.59980469 35.01640625 6.55664062 36.3046875 C6.51732422 37.60664063 6.47800781 38.90859375 6.4375 40.25 C6.39431641 41.56742187 6.35113281 42.88484375 6.30664062 44.2421875 C6.20058083 47.49468788 6.09851976 50.74726392 6 54 C4.02 54 2.04 54 0 54 C0 36.18 0 18.36 0 0 Z " fill="#C51C23" transform="translate(125,290)"/>
<path d="M0 0 C4.23031777 2.11515888 5.76482756 9.51204259 7.30126953 13.84326172 C13.23541126 32.15989625 12.31362104 50.77129323 3.75 68 C2.84980077 69.67561837 1.93966453 71.34619042 1 73 C0.67 73 0.34 73 0 73 C0 48.91 0 24.82 0 0 Z " fill="#F7F4F4" transform="translate(246,167)"/>
<path d="M0 0 C6.32532275 4.39497902 11.67248457 9.45050476 17 15 C12.53683 20.40648985 7.75871921 25.23167005 2.625 30 C1.90828125 30.67289063 1.1915625 31.34578125 0.453125 32.0390625 C-4.2772386 36.46203785 -9.09977614 40.76625951 -14 45 C-15.42950919 42.14098161 -14.3188652 40.36406314 -13.36065674 37.46418762 C-13.10242126 36.70901352 -12.84418579 35.95383942 -12.578125 35.17578125 C-12.1871463 34.00634224 -12.1871463 34.00634224 -11.78826904 32.8132782 C-11.23345469 31.15859716 -10.67501731 29.50512726 -10.11328125 27.8527832 C-9.26023578 25.34261972 -8.41819639 22.82898445 -7.578125 20.31445312 C-7.0371094 18.7055101 -6.49546222 17.09677927 -5.953125 15.48828125 C-5.70298645 14.7432283 -5.4528479 13.99817535 -5.19512939 13.23054504 C-3.65786554 8.71978878 -1.93031229 4.35753311 0 0 Z " fill="#FAF9F9" transform="translate(167,218)"/>
<path d="M0 0 C2 1 2 1 3.26171875 4.296875 C3.7447304 5.7787459 4.21935805 7.26336463 4.6875 8.75 C5.21280185 10.38305066 5.73887698 12.01585273 6.265625 13.6484375 C6.68231445 14.9473291 6.68231445 14.9473291 7.10742188 16.27246094 C8.03361118 19.102709 9.00303928 21.91498803 9.984375 24.7265625 C10.30962158 25.66790039 10.63486816 26.60923828 10.9699707 27.57910156 C11.60687782 29.41959118 12.25106494 31.25758025 12.90307617 33.09277344 C13.19158447 33.93614258 13.48009277 34.77951172 13.77734375 35.6484375 C14.03765381 36.39270996 14.29796387 37.13698242 14.56616211 37.90380859 C15.05738203 40.27725497 14.75971494 41.72246405 14 44 C10.32192366 40.61344067 6.64798235 37.22246753 2.97753906 33.82763672 C1.63410074 32.58603433 0.28966364 31.34551194 -1.05566406 30.10595703 C-3.10238569 28.21945127 -5.14527098 26.32886702 -7.1875 24.4375 C-7.83468994 23.84243652 -8.48187988 23.24737305 -9.14868164 22.63427734 C-9.75317139 22.07305176 -10.35766113 21.51182617 -10.98046875 20.93359375 C-11.51567139 20.43915771 -12.05087402 19.94472168 -12.60229492 19.43530273 C-14 18 -14 18 -16 15 C-13.89888324 12.87190742 -11.79429065 10.74746285 -9.6875 8.625 C-9.09259766 8.02171875 -8.49769531 7.4184375 -7.88476562 6.796875 C-7.30791016 6.21679688 -6.73105469 5.63671875 -6.13671875 5.0390625 C-5.60780029 4.50490723 -5.07888184 3.97075195 -4.53393555 3.42041016 C-3 2 -3 2 0 0 Z " fill="#FBFBFB" transform="translate(203,218)"/>
<path d="M0 0 C0.33 0 0.66 0 1 0 C1 23.76 1 47.52 1 72 C-1.66016923 68.45310769 -3.01190863 65.88097955 -4.5625 61.8125 C-4.97628906 60.74644531 -5.39007813 59.68039063 -5.81640625 58.58203125 C-8.28243431 51.11883741 -9.36629191 44.16919257 -9.3125 36.3125 C-9.30686035 35.44109375 -9.3012207 34.5696875 -9.29541016 33.671875 C-9.06325071 21.18583438 -6.18926904 10.9363783 0 0 Z " fill="#FDFCFC" transform="translate(124,168)"/>
<path d="M0 0 C0.33 0 0.66 0 1 0 C1.01417969 0.556875 1.02835937 1.11375 1.04296875 1.6875 C1.31023308 5.96372931 1.7608984 9.08251685 4.25 12.625 C6.86588998 16.38914401 8.33621793 20.35948915 9.75 24.6875 C9.96043945 25.32961426 10.17087891 25.97172852 10.38769531 26.63330078 C15.65359973 43.21098841 14.06008263 62.17347036 7 78 C5.35 80.97 3.7 83.94 2 87 C1.67 97.89 1.34 108.78 1 120 C-38.6 120 -78.2 120 -119 120 C-119 119.67 -119 119.34 -119 119 C-106.13 118.67 -93.26 118.34 -80 118 C-82.31 117.01 -84.62 116.02 -87 115 C-83.09695093 113.49372621 -80.61035282 114.62868175 -76.75 115.9375 C-69.38924943 118.10263917 -62.54990621 118.27749632 -54.92089844 118.13256836 C-43.43852164 117.92205225 -31.97929009 118.21525113 -20.5 118.5 C-18.47632243 118.54859116 -16.45264086 118.59701563 -14.42895508 118.64526367 C-9.61921052 118.76014148 -4.80963379 118.88018706 0 119 C-0.33 110.09 -0.66 101.18 -1 92 C-2.98 92.99 -2.98 92.99 -5 94 C-4.35125916 93.14522064 -3.70251831 92.29044128 -3.03411865 91.40975952 C-0.7996007 87.66407396 -0.48813035 85.74848879 -0.45410156 81.44384766 C-0.43438293 80.16297272 -0.41466431 78.88209778 -0.39434814 77.56240845 C-0.39268536 76.17962691 -0.3914543 74.79684479 -0.390625 73.4140625 C-0.37563181 71.9877231 -0.35890227 70.561401 -0.34051514 69.13510132 C-0.29695626 65.39674043 -0.27686836 61.65861369 -0.26177979 57.92004395 C-0.24216698 54.09889954 -0.20020183 50.27800648 -0.16015625 46.45703125 C-0.08497864 38.97142193 -0.03461232 31.48591851 0 24 C-0.66 24 -1.32 24 -2 24 C-2 23.34 -2 22.68 -2 22 C-2.61006393 22.01474869 -3.22012787 22.02949738 -3.84867859 22.04469299 C-10.25743609 22.19833996 -16.66635605 22.34280234 -23.07543945 22.48217773 C-25.46025749 22.53520951 -27.84502644 22.59050274 -30.22973633 22.64819336 C-33.67778945 22.73120071 -37.12594322 22.80579479 -40.57421875 22.87890625 C-41.62268478 22.90594131 -42.67115082 22.93297638 -43.75138855 22.96083069 C-51.2216543 23.10800061 -58.5616692 22.68918406 -66 22 C-66 21.67 -66 21.34 -66 21 C-44.22 21 -22.44 21 0 21 C-0.495 13.575 -0.495 13.575 -1 6 C-0.67 4.02 -0.34 2.04 0 0 Z M1 11 C1 35.09 1 59.18 1 84 C9.29163416 75.70836584 12.05155631 61.07834294 12.375 49.6875 C11.99305344 36.46260042 8.89668337 23.84264265 3 12 C2.34 11.67 1.68 11.34 1 11 Z " fill="#363334" transform="translate(245,156)"/>
<path d="M0 0 C0.33 0 0.66 0 1 0 C1 9.24 1 18.48 1 28 C-12.86 28 -26.72 28 -41 28 C-38.72980052 25.72980052 -37.61893258 25.51288557 -34.5625 24.75 C-21.14679341 20.85636102 -9.99225128 12.17230838 -1.2421875 1.43359375 C-0.83226562 0.96050781 -0.42234375 0.48742187 0 0 Z " fill="#FDFDFD" transform="translate(244,247)"/>
<path d="M0 0 C5 5 5 5 6.8515625 6.9921875 C16.22992601 16.94895229 28.73128516 23.75653637 42 27 C42 27.33 42 27.66 42 28 C28.14 28 14.28 28 0 28 C0 18.76 0 9.52 0 0 Z " fill="#FDFCFC" transform="translate(127,247)"/>
<path d="M0 0 C0.88602402 0.00222061 1.77204803 0.00444122 2.68492126 0.00672913 C3.68588333 0.00680466 4.6868454 0.00688019 5.71813965 0.00695801 C6.80666733 0.01211929 7.89519501 0.01728058 9.01670837 0.02259827 C10.67928932 0.02472069 10.67928932 0.02472069 12.37545776 0.02688599 C15.93168281 0.03250418 19.48784596 0.04505977 23.04405212 0.05775452 C25.44834809 0.06276717 27.85264504 0.06733048 30.25694275 0.07142639 C36.16516716 0.08247952 42.07335522 0.09923535 47.98155212 0.12025452 C47.98155212 0.45025452 47.98155212 0.78025452 47.98155212 1.12025452 C31.81155212 1.12025452 15.64155212 1.12025452 -1.01844788 1.12025452 C0.59030212 5.98775452 2.19905212 10.85525452 3.85655212 15.87025452 C4.36041443 17.40004944 4.86427673 18.92984436 5.38340759 20.5059967 C5.78446716 21.71417053 6.18552673 22.92234436 6.59873962 24.16712952 C7.0072113 25.40301819 7.41568298 26.63890686 7.83653259 27.9122467 C8.7424763 30.4504344 9.69790913 32.75917624 10.98155212 35.12025452 C19.08101785 27.57490071 27.16808076 20.0165786 35.23155212 12.43275452 C35.95785828 11.75019592 36.68416443 11.06763733 37.43247986 10.36439514 C38.11382996 9.72308655 38.79518005 9.08177795 39.49717712 8.42103577 C40.09820251 7.85554016 40.69922791 7.29004456 41.31846619 6.70741272 C42.89694292 5.20100091 44.44563111 3.66992044 45.98155212 2.12025452 C46.97155212 2.45025452 47.96155212 2.78025452 48.98155212 3.12025452 C34.01070359 17.20188726 34.01070359 17.20188726 26.54405212 24.05775452 C25.6030365 24.9278717 24.66202087 25.79798889 23.69248962 26.69447327 C21.90913762 28.29023925 20.08064648 29.83717239 18.20811462 31.32728577 C17.370224 32.00146545 16.53233337 32.67564514 15.66905212 33.37025452 C14.93041931 33.93228577 14.1917865 34.49431702 13.43077087 35.07337952 C11.60855648 37.64707317 12.01800091 39.02979807 12.52676392 42.04118347 C13.39482123 46.00952035 14.66225989 49.84420326 15.92295837 53.70228577 C16.21009201 54.59767563 16.49722565 55.49306549 16.7930603 56.41558838 C17.7047631 59.25638034 18.62388044 62.09469555 19.54405212 64.93275452 C20.46682644 67.78896074 21.387967 70.64566669 22.30575562 73.503479 C22.87575554 75.27736594 23.44879705 77.05027893 24.02514648 78.82211304 C24.28218857 79.62021896 24.53923065 80.41832489 24.80406189 81.24061584 C25.03198929 81.94342178 25.25991669 82.64622772 25.49475098 83.37033081 C25.98155212 85.12025452 25.98155212 85.12025452 25.98155212 87.12025452 C32.517974 82.56958106 38.59160424 78.00688702 43.98155212 72.12025452 C44.97155212 72.45025452 45.96155212 72.78025452 46.98155212 73.12025452 C36.3063287 84.95652944 22.01947835 94.8291222 5.98155212 97.12025452 C5.32155212 96.46025452 4.66155212 95.80025452 3.98155212 95.12025452 C4.77819275 94.9384967 5.57483337 94.75673889 6.39561462 94.56947327 C11.97181328 93.24665242 16.93087402 91.91141873 21.98155212 89.12025452 C22.64155212 89.12025452 23.30155212 89.12025452 23.98155212 89.12025452 C23.98155212 88.46025452 23.98155212 87.80025452 23.98155212 87.12025452 C23.17717712 86.81087952 23.17717712 86.81087952 22.35655212 86.49525452 C18.97978672 84.54028507 16.67680373 81.93801756 13.98155212 79.12025452 C14.31155212 78.46025452 14.64155212 77.80025452 14.98155212 77.12025452 C17.29155212 79.10025452 19.60155212 81.08025452 21.98155212 83.12025452 C20.53418692 75.6202712 18.19583632 68.51268606 15.72422791 61.29994202 C14.35052476 57.2682452 13.01271089 53.22454094 11.66905212 49.18275452 C11.15226564 47.63192641 10.63535084 46.08114105 10.11827087 44.53041077 C9.74315369 43.4050592 9.3680365 42.27970764 8.98155212 41.12025452 C7.49655212 41.61525452 7.49655212 41.61525452 5.98155212 42.12025452 C5.98155212 39.12025452 5.98155212 39.12025452 6.58042908 36.78749084 C7.07264684 33.5145273 6.45520359 31.5705089 5.39952087 28.44447327 C5.04438416 27.36875061 4.68924744 26.29302795 4.323349 25.18470764 C3.94243103 24.07031311 3.56151306 22.95591858 3.16905212 21.80775452 C-1.82446632 6.89691671 -1.82446632 6.89691671 -3.01844788 1.12025452 C-2.01844788 0.12025452 -2.01844788 0.12025452 0 0 Z " fill="#575455" transform="translate(195.01844787597656,177.87974548339844)"/>
<path d="M0 0 C-0.66 0.66 -1.32 1.32 -2 2 C-2.48726563 1.56429687 -2.97453125 1.12859375 -3.4765625 0.6796875 C-18.46588307 -11.91134178 -36.99821363 -15.20282244 -56 -14 C-59.46588947 -13.63254313 -62.66452556 -13.00121446 -66 -12 C-66.86496094 -11.74347656 -67.72992188 -11.48695313 -68.62109375 -11.22265625 C-77.57200751 -8.26441099 -86.04848626 -3.84952822 -93.0625 2.5 C-94.031875 3.325 -95.00125 4.15 -96 5 C-96.99 4.67 -97.98 4.34 -99 4 C-69.98897453 -22.55246399 -31.26123917 -23.14340126 0 0 Z " fill="#555253" transform="translate(233,148)"/>
<path d="M0 0 C0.33 0 0.66 0 1 0 C1 9.57 1 19.14 1 29 C-38.6 29 -78.2 29 -119 29 C-119 28.67 -119 28.34 -119 28 C-106.13 27.67 -93.26 27.34 -80 27 C-82.31 26.01 -84.62 25.02 -87 24 C-83.09695093 22.49372621 -80.61035282 23.62868175 -76.75 24.9375 C-69.38924943 27.10263917 -62.54990621 27.27749632 -54.92089844 27.13256836 C-43.43852164 26.92205225 -31.97929009 27.21525113 -20.5 27.5 C-18.47632243 27.54859116 -16.45264086 27.59701563 -14.42895508 27.64526367 C-9.61921052 27.76014148 -4.80963379 27.88018706 0 28 C0 18.76 0 9.52 0 0 Z " fill="#242021" transform="translate(245,247)"/>
<path d="M0 0 C0.99 0.33 1.98 0.66 3 1 C2.67 21.46 2.34 41.92 2 63 C-2 62 -2 62 -3.73828125 59.3828125 C-4.25777344 58.30773437 -4.77726562 57.23265625 -5.3125 56.125 C-6.11107422 54.52011719 -6.11107422 54.52011719 -6.92578125 52.8828125 C-8 50 -8 50 -7 47 C-5 50 -5 50 -1 59 C-0.67 39.53 -0.34 20.06 0 0 Z " fill="#6C696A" transform="translate(125,179)"/>
<path d="M0 0 C0.99 0.33 1.98 0.66 3 1 C-7.67522343 12.83627492 -21.96207377 22.70886768 -38 25 C-38.66 24.34 -39.32 23.68 -40 23 C-39.20335937 22.81824219 -38.40671875 22.63648438 -37.5859375 22.44921875 C-32.00973884 21.1263979 -27.05067811 19.79116422 -22 17 C-21.34 17 -20.68 17 -20 17 C-20 16.34 -20 15.68 -20 15 C-20.53625 14.79375 -21.0725 14.5875 -21.625 14.375 C-25.0017654 12.42003056 -27.30474839 9.81776305 -30 7 C-29.67 6.34 -29.34 5.68 -29 5 C-26.36 6.98 -23.72 8.96 -21 11 C-20.34 10.67 -19.68 10.34 -19 10 C-18.67 11.65 -18.34 13.3 -18 15 C-11.46357812 10.44932654 -5.38994789 5.8866325 0 0 Z " fill="#484546" transform="translate(239,250)"/>
<path d="M0 0 C3.146948 4.88319518 3.146948 4.88319518 2.6875 8.375 C2.460625 8.91125 2.23375 9.4475 2 10 C0.35 10.33 -1.3 10.66 -3 11 C-3 12.65 -3 14.3 -3 16 C-5.36557373 13.86699672 -6.62967528 12.04050601 -7.75 9.0625 C-8.01296875 8.39347656 -8.2759375 7.72445312 -8.546875 7.03515625 C-9.07967239 4.64216105 -8.86261416 3.28081031 -8 1 C-5.18269202 -1.04011957 -3.14790147 -1.62472334 0 0 Z " fill="#403D3E" transform="translate(159,120)"/>
<path d="M0 0 C4.75 1.875 4.75 1.875 7 3 C7.33 2.01 7.66 1.02 8 0 C8.66 0 9.32 0 10 0 C8.58832253 5.26170694 6.25149768 8.72171358 3 13 C-1.75 12.25 -1.75 12.25 -4 10 C-3.72317437 5.75534029 -2.81645906 3.18382329 0 0 Z " fill="#3D393A" transform="translate(225,124)"/>
<path d="M0 0 C2.61167103 2.61167103 3.07131482 4.9721059 4.125 8.5 C4.47820312 9.6653125 4.83140625 10.830625 5.1953125 12.03125 C6 15 6 15 6 17 C2.37 17 -1.26 17 -5 17 C-4.20514017 13.02570087 -3.23700354 9.50217167 -1.9375 5.6875 C-1.57527344 4.61886719 -1.21304688 3.55023438 -0.83984375 2.44921875 C-0.56269531 1.64097656 -0.28554687 0.83273438 0 0 Z " fill="#FAF9F9" transform="translate(185,160)"/>
<path d="M0 0 C0 0.33 0 0.66 0 1 C-1.09957031 1.17015625 -2.19914062 1.3403125 -3.33203125 1.515625 C-18.45813521 3.95061736 -32.39153354 7.93470405 -44.0625 18.5 C-45.031875 19.325 -46.00125 20.15 -47 21 C-47.99 20.67 -48.98 20.34 -50 20 C-35.71950145 6.92971319 -19.52626681 -0.82634671 0 0 Z " fill="#4A4748" transform="translate(184,132)"/>
<path d="M0 0 C2.87404529 2.36082292 3.62678919 4.40252923 4.0625 8.0625 C3.9078125 9.238125 3.9078125 9.238125 3.75 10.4375 C0.52208445 12.5894437 -0.53400809 12.63836443 -4.25 12.4375 C-4.91 10.4575 -5.57 8.4775 -6.25 6.4375 C-5.26 5.4475 -4.27 4.4575 -3.25 3.4375 C-4.9 3.7675 -6.55 4.0975 -8.25 4.4375 C-8.25 3.7775 -8.25 3.1175 -8.25 2.4375 C-2.89864865 -0.72466216 -2.89864865 -0.72466216 0 0 Z " fill="#3E3A3B" transform="translate(146.25,124.5625)"/>
<path d="M0 0 C7.875 0.875 7.875 0.875 9 2 C9.23961213 6.23314767 9.32488647 9.36736489 7 13 C1.25 12.25 1.25 12.25 -1 10 C-0.625 6.875 -0.625 6.875 0 4 C2.31 4 4.62 4 7 4 C4.69 3.34 2.38 2.68 0 2 C0 1.34 0 0.68 0 0 Z " fill="#4F4C4D" transform="translate(199,115)"/>
<path d="M0 0 C3.37462715 0.54723683 5.08235 1.0549 8 3 C7.67 4.65 7.34 6.3 7 8 C4.36 8 1.72 8 -1 8 C0.32 8.99 1.64 9.98 3 11 C2.67 11.99 2.34 12.98 2 14 C0.02 12.35 -1.96 10.7 -4 9 C-3.46930939 5.17902761 -2.50298434 2.93828597 0 0 Z " fill="#4C494A" transform="translate(235,131)"/>
<path d="M0 0 C3.0625 0.1875 3.0625 0.1875 5.0625 2.1875 C5 4.1875 5 4.1875 4.0625 6.1875 C1.5625 7.3125 1.5625 7.3125 -0.9375 8.1875 C-1.2675 8.8475 -1.5975 9.5075 -1.9375 10.1875 C0.3725 10.1875 2.6825 10.1875 5.0625 10.1875 C5.0625 10.8475 5.0625 11.5075 5.0625 12.1875 C2.4225 12.1875 -0.2175 12.1875 -2.9375 12.1875 C-4.88893115 9.31774831 -4.92680952 8.06135237 -4.625 4.5 C-3.74059194 0.23876119 -3.74059194 0.23876119 0 0 Z " fill="#403D3E" transform="translate(184.9375,113.8125)"/>
<path d="M0 0 C0.75 1.75 0.75 1.75 1 4 C-0.8125 6.25 -0.8125 6.25 -3 8 C-3.66 8 -4.32 8 -5 8 C-5 8.66 -5 9.32 -5 10 C-2.36 9.67 0.28 9.34 3 9 C3 9.66 3 10.32 3 11 C-1.455 11.495 -1.455 11.495 -6 12 C-7.99173794 8.01652411 -8.46902162 6.3149989 -8 2 C-4.77208445 -0.1519437 -3.71599191 -0.20086443 0 0 Z " fill="#949091" transform="translate(171,116)"/>
<path d="M0 0 C4.76350585 0.71452588 9.34201396 1.79534844 14 3 C13.67 3.99 13.34 4.98 13 6 C-1.85 6 -16.7 6 -32 6 C-32 5.67 -32 5.34 -32 5 C-19.13 4.67 -6.26 4.34 7 4 C4.69 3.01 2.38 2.02 0 1 C0 0.67 0 0.34 0 0 Z " fill="#322F30" transform="translate(158,270)"/>
<path d="M0 0 C4.5773308 2.41180324 7.76723926 5.57035401 11.3125 9.25 C15.5890453 13.61932911 19.89909694 17.8217296 24.609375 21.73046875 C26 23 26 23 27 25 C22.52687915 24.59528907 20.15992643 21.45134001 17.25 18.375 C16.18556664 17.27803009 15.11915881 16.18297263 14.05078125 15.08984375 C13.53209473 14.55858887 13.0134082 14.02733398 12.47900391 13.47998047 C9.97995296 10.97927944 7.31958817 8.68300678 4.62109375 6.40234375 C2.99060992 4.99187701 1.43559898 3.61013989 0 2 C0 1.34 0 0.68 0 0 Z " fill="#4B4849" transform="translate(135,186)"/>
<path d="M0 0 C2.475 0.99 2.475 0.99 5 2 C4.34 3.32 3.68 4.64 3 6 C2.34 6 1.68 6 1 6 C1.33 6.99 1.66 7.98 2 9 C2.06937062 11.22818441 2.08457084 13.45834524 2.0625 15.6875 C2.05347656 16.86699219 2.04445313 18.04648438 2.03515625 19.26171875 C2.02355469 20.16535156 2.01195313 21.06898438 2 22 C1.34 22.33 0.68 22.66 0 23 C-0.33 20.36 -0.66 17.72 -1 15 C-1.99 16.32 -2.98 17.64 -4 19 C-4.33 18.34 -4.66 17.68 -5 17 C-4.38125 16.01 -3.7625 15.02 -3.125 14 C-0.40169189 9.55819057 -0.20574658 5.11280249 0 0 Z " fill="#636061" transform="translate(125,155)"/>
<path d="M0 0 C-0.66 1.32 -1.32 2.64 -2 4 C-2.66 4 -3.32 4 -4 4 C-4 4.99 -4 5.98 -4 7 C-3.01 6.34 -2.02 5.68 -1 5 C1.6875 5.375 1.6875 5.375 4 6 C4.33 7.32 4.66 8.64 5 10 C0.25 14 0.25 14 -2 14 C-1.0022242 11.00667261 -0.2477975 10.05233685 2 8 C0.88625 8.20625 -0.2275 8.4125 -1.375 8.625 C-2.57125 8.74875 -3.7675 8.8725 -5 9 C-5.66 8.34 -6.32 7.68 -7 7 C-6.81511956 4.13435314 -6.20773139 3.18762835 -4.0625 1.25 C-2 0 -2 0 0 0 Z " fill="#3B3738" transform="translate(136,130)"/>
<path d="M0 0 C0.66 0.33 1.32 0.66 2 1 C1.34 3.64 0.68 6.28 0 9 C1.65 9.33 3.3 9.66 5 10 C5.2165625 8.576875 5.2165625 8.576875 5.4375 7.125 C6 4 6 4 7 2 C7.66 2 8.32 2 9 2 C8.39301257 6.12751449 6.96189209 9.3321148 5 13 C-0.75 12.25 -0.75 12.25 -3 10 C-2.79296875 7.87109375 -2.79296875 7.87109375 -2.1875 5.4375 C-1.99542969 4.63183594 -1.80335938 3.82617188 -1.60546875 2.99609375 C-1 1 -1 1 0 0 Z " fill="#4A4647" transform="translate(212,119)"/>
<path d="M0 0 C0.33 0 0.66 0 1 0 C1.36351562 1.34384766 1.36351562 1.34384766 1.734375 2.71484375 C3.10544428 6.2736995 4.50831393 7.95603314 7.25 10.5625 C8.04792969 11.325625 8.84585938 12.08875 9.66796875 12.875 C12.38047237 15.34669509 15.12743894 17.71668223 18 20 C17.34 20.66 16.68 21.32 16 22 C15.26394531 21.24074219 14.52789062 20.48148438 13.76953125 19.69921875 C12.7841269 18.69504479 11.79843448 17.69115346 10.8125 16.6875 C10.32974609 16.18798828 9.84699219 15.68847656 9.34960938 15.17382812 C6.43697661 12.22209962 3.57684389 10.0657708 0 8 C-1.32756618 5.06038917 -0.97079451 3.0202496 0 0 Z " fill="#434041" transform="translate(167,211)"/>
<path d="M0 0 C1.98 0 3.96 0 6 0 C6 2.64 6 5.28 6 8 C4.33388095 8.042721 2.66617115 8.04063832 1 8 C0 7 0 7 -0.0625 3.4375 C-0.041875 2.303125 -0.02125 1.16875 0 0 Z " fill="#444041" transform="translate(280,290)"/>
<path d="M0 0 C2.31 0.66 4.62 1.32 7 2 C6 5 6 5 4 6 C4.33 6.66 4.66 7.32 5 8 C3.35 8 1.7 8 0 8 C-0.66 6.02 -1.32 4.04 -2 2 C-1.34 1.34 -0.68 0.68 0 0 Z " fill="#484546" transform="translate(142,129)"/>
<path d="M0 0 C0.33 2.31 0.66 4.62 1 7 C-0.98 7.99 -0.98 7.99 -3 9 C-4.5625 6.6875 -4.5625 6.6875 -6 4 C-5.67 3.01 -5.34 2.02 -5 1 C-2 0 -2 0 0 0 Z " fill="#F1EFEF" transform="translate(158,121)"/>
<path d="M0 0 C1.32 0.66 2.64 1.32 4 2 C3.75 4.375 3.75 4.375 3 7 C1.0625 8.375 1.0625 8.375 -1 9 C-1.66 8.67 -2.32 8.34 -3 8 C-2.45276317 4.62537285 -1.9451 2.91765 0 0 Z " fill="#F5F4F4" transform="translate(226,126)"/>
<path d="M0 0 C7.875 0.875 7.875 0.875 9 2 C9.04092937 4.33297433 9.04241723 6.66705225 9 9 C8.01 9.495 8.01 9.495 7 10 C7 9.01 7 8.02 7 7 C4.03 6.505 4.03 6.505 1 6 C1.33 5.34 1.66 4.68 2 4 C3.65 4 5.3 4 7 4 C4.69 3.34 2.38 2.68 0 2 C0 1.34 0 0.68 0 0 Z " fill="#3D393A" transform="translate(199,115)"/>
<path d="M0 0 C0.86625 0.556875 0.86625 0.556875 1.75 1.125 C1.42 2.775 1.09 4.425 0.75 6.125 C-1.625 5.875 -1.625 5.875 -4.25 5.125 C-5.5625 3.0625 -5.5625 3.0625 -6.25 1.125 C-2.80384615 -1.09038462 -2.80384615 -1.09038462 0 0 Z " fill="#848081" transform="translate(241.25,132.875)"/>
<path d="M0 0 C1.65 0 3.3 0 5 0 C5 2.31 5 4.62 5 7 C3.35 7 1.7 7 0 7 C0 4.69 0 2.38 0 0 Z " fill="#2A2627" transform="translate(294,290)"/>
<path d="M0 0 C3.6327391 2.42182607 3.68131947 3.50445117 4.6875 7.625 C4.93886719 8.62789062 5.19023437 9.63078125 5.44921875 10.6640625 C5.63097656 11.43492187 5.81273437 12.20578125 6 13 C5.01 13.495 5.01 13.495 4 14 C3.01 11.03 2.02 8.06 1 5 C0.01 5.33 -0.98 5.66 -2 6 C-2 3 -2 3 0 0 Z " fill="#5E5B5C" transform="translate(203,214)"/>
<path d="M0 0 C1.4540625 0.0309375 1.4540625 0.0309375 2.9375 0.0625 C2.9375 1.3825 2.9375 2.7025 2.9375 4.0625 C0.9575 4.7225 -1.0225 5.3825 -3.0625 6.0625 C-3.44468767 4.40635343 -3.77645102 2.73792976 -4.0625 1.0625 C-3.0625 0.0625 -3.0625 0.0625 0 0 Z " fill="#8C8788" transform="translate(185.0625,113.9375)"/>
<path d="M0 0 C3.61032268 1.20344089 3.98859218 2.15392526 5.9375 5.3125 C8.03337301 8.59481484 10.06113776 11.40023725 13 14 C12.67 14.66 12.34 15.32 12 16 C7.41192433 11.64992249 3.44142218 7.31856154 0 2 C0 1.34 0 0.68 0 0 Z " fill="#3B3738" transform="translate(124,241)"/>
<path d="M0 0 C0.33 1.32 0.66 2.64 1 4 C0.01 4.66 -0.98 5.32 -2 6 C-2 5.01 -2 4.02 -2 3 C-2.99 3 -3.98 3 -5 3 C-5 4.32 -5 5.64 -5 7 C-5.66 7 -6.32 7 -7 7 C-7.33 5.35 -7.66 3.7 -8 2 C-4.77208445 -0.1519437 -3.71599191 -0.20086443 0 0 Z " fill="#373435" transform="translate(171,116)"/>
<path d="M0 0 C2.31 0 4.62 0 7 0 C7 3.3 7 6.6 7 10 C4 6 4 6 3 3 C2.34 3 1.68 3 1 3 C0.67 2.01 0.34 1.02 0 0 Z " fill="#AFA9AA" transform="translate(240,155)"/>
<path d="M0 0 C4.455 2.97 4.455 2.97 9 6 C9.66 5.67 10.32 5.34 11 5 C10.34 6.65 9.68 8.3 9 10 C7.86800647 9.0919838 6.74467637 8.17316174 5.625 7.25 C4.99851563 6.73953125 4.37203125 6.2290625 3.7265625 5.703125 C2 4 2 4 0 0 Z " fill="#5D5B5C" transform="translate(209,255)"/>
<path d="M0 0 C0 0.66 0 1.32 0 2 C-0.66 2 -1.32 2 -2 2 C-2.2475 2.5775 -2.495 3.155 -2.75 3.75 C-4.16683317 6.3002997 -5.87627537 8.01785701 -8 10 C-8 9.01 -8 8.02 -8 7 C-7.34 7 -6.68 7 -6 7 C-5.67 6.01 -5.34 5.02 -5 4 C-5.99 3.34 -6.98 2.68 -8 2 C-2.25 0 -2.25 0 0 0 Z " fill="#423E3F" transform="translate(134,154)"/>
<path d="M0 0 C4.67248931 2.82522609 7.65996398 5.67760044 11 10 C7.43235179 9.42380903 5.74840503 8.13030516 3.25 5.5625 C2.63640625 4.94503906 2.0228125 4.32757813 1.390625 3.69140625 C0 2 0 2 0 0 Z " fill="#524F50" transform="translate(151,201)"/>
<path d="M0 0 C0.33 0 0.66 0 1 0 C1 1.65 1 3.3 1 5 C4.60992379 4.34414811 4.60992379 4.34414811 8 3 C7.67 4.32 7.34 5.64 7 7 C5.25 7.6875 5.25 7.6875 3 8 C0.75 6.5625 0.75 6.5625 -1 5 C-0.67 3.35 -0.34 1.7 0 0 Z " fill="#2F2C2D" transform="translate(222,129)"/>
<path d="M0 0 C0.99 0.33 1.98 0.66 3 1 C0.36 3.64 -2.28 6.28 -5 9 C-5.66 8.34 -6.32 7.68 -7 7 C-4.69 4.69 -2.38 2.38 0 0 Z " fill="#5C595A" transform="translate(239,250)"/>
<path d="M0 0 C1.03159626 3.09478879 0.97482862 4.52631393 0.5625 7.6875 C0.46066406 8.49574219 0.35882813 9.30398437 0.25390625 10.13671875 C0.17011719 10.75160156 0.08632812 11.36648437 0 12 C-0.66 12 -1.32 12 -2 12 C-2 8.37 -2 4.74 -2 1 C-1.34 0.67 -0.68 0.34 0 0 Z " fill="#474344" transform="translate(177,114)"/>
<path d="M0 0 C4 2.66666667 8 5.33333333 12 8 C11.34 8.66 10.68 9.32 10 10 C8.32756598 8.71580959 6.66218553 7.42242815 5 6.125 C3.6078125 5.04605469 3.6078125 5.04605469 2.1875 3.9453125 C1.465625 3.30335938 0.74375 2.66140625 0 2 C0 1.34 0 0.68 0 0 Z " fill="#4E4B4C" transform="translate(137,256)"/>
<path d="M0 0 C0.66 0.33 1.32 0.66 2 1 C1.84402344 1.55429688 1.68804687 2.10859375 1.52734375 2.6796875 C1.33269531 3.40414062 1.13804687 4.12859375 0.9375 4.875 C0.74027344 5.59429687 0.54304687 6.31359375 0.33984375 7.0546875 C-0.21132607 9.07273593 -0.21132607 9.07273593 1 11 C-0.32 10.67 -1.64 10.34 -3 10 C-2.69201674 8.51988629 -2.378482 7.04092675 -2.0625 5.5625 C-1.88847656 4.73878906 -1.71445313 3.91507812 -1.53515625 3.06640625 C-1 1 -1 1 0 0 Z " fill="#423E3F" transform="translate(212,119)"/>
<path d="M0 0 C0.9075 0.165 1.815 0.33 2.75 0.5 C6.11087503 1.10137146 6.11087503 1.10137146 10 1 C10 1.66 10 2.32 10 3 C5.545 3.495 5.545 3.495 1 4 C0.67 2.68 0.34 1.36 0 0 Z " fill="#403D3E" transform="translate(164,124)"/>
<path d="M0 0 C2.475 0.495 2.475 0.495 5 1 C5 2.32 5 3.64 5 5 C3.35 4.67 1.7 4.34 0 4 C0 2.68 0 1.36 0 0 Z " fill="#E6E4E4" transform="translate(200,121)"/>
<path d="M0 0 C-0.33 0.99 -0.66 1.98 -1 3 C-3.0625 3.6875 -3.0625 3.6875 -5 4 C-5.33 2.68 -5.66 1.36 -6 0 C-3.50907189 -1.24546405 -2.58919267 -0.7767578 0 0 Z " fill="#F4F2F2" transform="translate(149,131)"/>
<path d="M0 0 C2.475 0.99 2.475 0.99 5 2 C5 2.66 5 3.32 5 4 C3.68 3.67 2.36 3.34 1 3 C0.01 4.32 -0.98 5.64 -2 7 C-2.33 6.01 -2.66 5.02 -3 4 C-1.5625 1.8125 -1.5625 1.8125 0 0 Z " fill="#4E4B4C" transform="translate(225,124)"/>
<path d="M0 0 C0.33 0 0.66 0 1 0 C1.433125 1.3921875 1.433125 1.3921875 1.875 2.8125 C2.8875 6.09791667 2.8875 6.09791667 5 9 C2 9 2 9 -1 8 C-0.67 5.36 -0.34 2.72 0 0 Z " fill="#5B5859" transform="translate(167,211)"/>
<path d="M0 0 C2.475 0.99 2.475 0.99 5 2 C4.34 3.32 3.68 4.64 3 6 C2.34 6 1.68 6 1 6 C0.67 6.99 0.34 7.98 0 9 C0 6.03 0 3.06 0 0 Z " fill="#898687" transform="translate(125,155)"/>
<path d="M0 0 C1.32 0 2.64 0 4 0 C3.67 0.99 3.34 1.98 3 3 C2.34 3 1.68 3 1 3 C0.67 3.66 0.34 4.32 0 5 C0.99 5.33 1.98 5.66 3 6 C2.01 6.495 2.01 6.495 1 7 C0.01 6.34 -0.98 5.68 -2 5 C-1.34 3.35 -0.68 1.7 0 0 Z " fill="#393536" transform="translate(235,131)"/>
<path d="M0 0 C-3 2 -3 2 -6 3 C-6.33 3.66 -6.66 4.32 -7 5 C-7.66 5 -8.32 5 -9 5 C-8.75 3.125 -8.75 3.125 -8 1 C-5.08518252 -1.1107299 -3.34823603 -1.19579858 0 0 Z " fill="#4E4A4B" transform="translate(159,120)"/>
<path d="M0 0 C-0.66 1.32 -1.32 2.64 -2 4 C-2.66 4 -3.32 4 -4 4 C-4.33 4.99 -4.66 5.98 -5 7 C-5.66 7 -6.32 7 -7 7 C-6.61402985 4.20171644 -6.19863427 3.1794116 -4.0625 1.25 C-2 0 -2 0 0 0 Z " fill="#524F50" transform="translate(136,130)"/>
<path d="M0 0 C2 1 2 1 3.1875 3.8125 C3.9946573 6.97904018 3.91292822 8.01517795 3 11 C2.30300448 9.54618103 1.61766134 8.08677047 0.9375 6.625 C0.55464844 5.81289062 0.17179688 5.00078125 -0.22265625 4.1640625 C-0.47917969 3.44992188 -0.73570312 2.73578125 -1 2 C-0.67 1.34 -0.34 0.68 0 0 Z " fill="#383435" transform="translate(185,156)"/>
<path d="M0 0 C-1 3 -1 3 -2.875 4.1875 C-5 5 -5 5 -8 5 C-8 4.34 -8 3.68 -8 3 C-2.25 0 -2.25 0 0 0 Z " fill="#4A4748" transform="translate(146,124)"/>
</svg>
