<?xml version="1.0" encoding="UTF-8"?>
<svg version="1.1" xmlns="http://www.w3.org/2000/svg" width="696" height="1388">
<path d="M0 0 C111.87 0 223.74 0 339 0 C339 111.87 339 223.74 339 339 C227.13 339 115.26 339 0 339 C0 227.13 0 115.26 0 0 Z M159.6875 55.5 C156.89551577 59.63627293 156.87818603 63.14995 156.90234375 68.078125 C156.90556641 69.23828125 156.90878906 70.3984375 156.91210938 71.59375 C156.92048828 72.8003125 156.92886719 74.006875 156.9375 75.25 C156.94201172 76.47203125 156.94652344 77.6940625 156.95117188 78.953125 C156.96295185 81.96879946 156.97940147 84.98437498 157 88 C155.19813232 87.98428955 155.19813232 87.98428955 153.35986328 87.96826172 C148.91327888 87.93212713 144.46670752 87.90912343 140.02001953 87.89013672 C138.09356506 87.88006418 136.16712592 87.86640557 134.24072266 87.84912109 C131.47554748 87.82492759 128.710574 87.81352964 125.9453125 87.8046875 C125.0806839 87.79436493 124.2160553 87.78404236 123.32522583 87.77340698 C121.21546479 87.77300894 119.10619282 87.87734757 117 88 C114.31512835 90.68487165 114.74230551 92.06476981 114.734375 95.8125 C114.73179688 96.97007813 114.72921875 98.12765625 114.7265625 99.3203125 C114.73816406 101.14175781 114.73816406 101.14175781 114.75 103 C114.74226563 104.21429687 114.73453125 105.42859375 114.7265625 106.6796875 C114.73042969 108.41605469 114.73042969 108.41605469 114.734375 110.1875 C114.73663086 111.25355469 114.73888672 112.31960938 114.74121094 113.41796875 C114.74119202 116.16323461 114.74119202 116.16323461 117 118 C130.2 118 143.4 118 157 118 C157 154.3 157 190.6 157 228 C102.41118623 226.95021512 102.41118623 226.95021512 96.6875 222 C93.28152048 217.96328353 93.8498663 213.46115596 93.82421875 208.45703125 C93.80100951 206.72589945 93.77689174 204.99477963 93.75195312 203.26367188 C93.71694155 200.54280702 93.68754893 197.82238036 93.67407227 195.10131836 C93.65849566 192.46935144 93.61821709 189.8386573 93.57421875 187.20703125 C93.57612717 186.4046553 93.57803558 185.60227936 93.58000183 184.77558899 C93.41367845 177.00430059 90.52598871 171.18183399 85.25 165.5 C84.63640625 164.8296875 84.0228125 164.159375 83.390625 163.46875 C82.93171875 162.9840625 82.4728125 162.499375 82 162 C78.32146729 162.55784342 76.82212003 163.88677177 74.4375 166.6875 C73.85871094 167.35136719 73.27992187 168.01523438 72.68359375 168.69921875 C68.18885553 174.84168003 67.54285536 179.68160971 67.56640625 187.078125 C67.5611644 188.0447406 67.55592255 189.0113562 67.55052185 190.00726318 C67.54411497 192.0479639 67.54542133 194.0887016 67.55395508 196.12939453 C67.56243502 199.22626863 67.53373301 202.321278 67.50195312 205.41796875 C67.50033998 207.40885362 67.50092081 209.39974172 67.50390625 211.390625 C67.49267227 212.30450989 67.48143829 213.21839478 67.46986389 214.15997314 C67.58848556 225.29780321 72.17503659 233.97417578 79.8125 241.875 C90.49924539 251.87227795 102.17165894 254.32645058 116.375 254.1953125 C118.1226062 254.19106766 118.1226062 254.19106766 119.90551758 254.18673706 C123.60378562 254.17559807 127.30180592 254.15050479 131 254.125 C133.51692357 254.1149621 136.03385096 254.10583766 138.55078125 254.09765625 C144.70060447 254.0756793 150.85028453 254.04226444 157 254 C156.98332275 254.80099121 156.96664551 255.60198242 156.94946289 256.42724609 C156.9300061 258.02173584 156.9300061 258.02173584 156.91015625 259.6484375 C156.893479 260.69692871 156.87680176 261.74541992 156.85961914 262.82568359 C157.2713511 272.13583824 161.62687743 278.42027447 167.78125 285.1015625 C170.53533197 287.52282863 170.53533197 287.52282863 174 288 C181.09940588 282.91292572 185.28061734 276.15814798 188 268 C188.06970052 265.60509014 188.08448003 263.20832309 188.0625 260.8125 C188.05347656 259.54019531 188.04445313 258.26789063 188.03515625 256.95703125 C188.02355469 255.98121094 188.01195312 255.00539063 188 254 C188.66017624 254.00888245 189.32035248 254.01776489 190.00053406 254.0269165 C196.92840842 254.11603822 203.85611753 254.17600106 210.78442383 254.21972656 C213.36326726 254.23972885 215.942066 254.26693956 218.52075195 254.30175781 C222.24702039 254.35077817 225.97268447 254.37308374 229.69921875 254.390625 C230.8351799 254.41127014 231.97114105 254.43191528 233.14152527 254.45318604 C246.95911307 254.4569806 258.21088747 250.38413267 268.25390625 240.86328125 C274.67924936 234.08294681 279.02453545 226.2451535 279.19287109 216.75732422 C279.20893402 215.92901093 279.22499695 215.10069763 279.24154663 214.24728394 C279.28644007 210.45686016 279.32708268 206.66660481 279.35009766 202.87597656 C279.36661107 200.88594836 279.39383973 198.89597834 279.43212891 196.90625 C279.79738325 180.03293196 279.79738325 180.03293196 271.98046875 165.4921875 C271.38878906 164.95851563 270.79710937 164.42484375 270.1875 163.875 C269.58292969 163.31554688 268.97835937 162.75609375 268.35546875 162.1796875 C267.90816406 161.79039062 267.46085938 161.40109375 267 161 C261.35782614 165.4389437 256.33277224 170.00168327 254 177 C253.8813712 179.87739114 253.8147297 182.73496107 253.7890625 185.61328125 C253.76098988 187.35352497 253.73232539 189.09375922 253.703125 190.83398438 C253.66191101 193.57250665 253.62501587 196.31085297 253.59863281 199.04956055 C253.57093712 201.69617038 253.52506381 204.34198164 253.4765625 206.98828125 C253.47330963 207.80097977 253.47005676 208.61367828 253.46670532 209.45100403 C253.36128861 214.35499578 252.68359867 217.74096537 250 222 C234.08891389 236.71775466 206.70076239 227.65368959 188 228 C188 191.7 188 155.4 188 118 C201.2 118 214.4 118 228 118 C231.11496916 113.32754625 230.32850857 108.49414246 230.3125 103 C230.32861328 101.89398437 230.34472656 100.78796875 230.36132812 99.6484375 C230.36229492 98.05902344 230.36229492 98.05902344 230.36328125 96.4375 C230.36626221 95.46683594 230.36924316 94.49617188 230.37231445 93.49609375 C229.92887768 90.52317729 229.31719222 89.83741978 227 88 C223.98703764 87.73827246 221.18519432 87.65139887 218.17578125 87.70703125 C216.88367989 87.71339851 216.88367989 87.71339851 215.56547546 87.71989441 C212.81416569 87.73668752 210.06358838 87.77434044 207.3125 87.8125 C205.4472762 87.82754604 203.58204093 87.84123459 201.71679688 87.85351562 C197.14424902 87.88659307 192.5722487 87.9383794 188 88 C188.02094727 87.18845459 188.04189453 86.37690918 188.06347656 85.54077148 C188.14697084 81.83980858 188.19876755 78.13904434 188.25 74.4375 C188.28351563 73.16068359 188.31703125 71.88386719 188.3515625 70.56835938 C188.42504058 63.49609372 188.42631107 58.66567818 184 53 C180.4638321 49.71641552 177.71823206 48.71961741 173 48.5 C166.95656032 48.76315278 163.74687221 51.1114895 159.6875 55.5 Z " fill="#00395A" transform="translate(0,1049)"/>
<path d="M0 0 C111.87 0 223.74 0 339 0 C339 111.87 339 223.74 339 339 C227.13 339 115.26 339 0 339 C0 227.13 0 115.26 0 0 Z M125.11425781 65.54052734 C124.44231038 66.1341466 123.77036295 66.72776587 123.07805347 67.33937359 C120.85279551 69.32028123 118.65024813 71.32388324 116.453125 73.3359375 C115.69644468 74.02790159 114.93976437 74.71986568 114.16015434 75.43279839 C108.455047 80.67605504 102.83687684 86.00618269 97.25 91.375 C96.43827457 92.15172939 95.62654915 92.92845879 94.79022598 93.72872543 C68.01152494 118.28021174 68.01152494 118.28021174 57.80175781 151.73486328 C58.15379433 161.05972569 59.42615008 170.03318043 62 179 C67.55439924 174.37508621 72.68525669 169.44639036 77.77734375 164.3203125 C78.58869278 163.50754852 79.40004181 162.69478455 80.23597717 161.85739136 C82.8055259 159.28228262 85.37155968 156.7037038 87.9375 154.125 C89.68791929 152.36956054 91.438568 150.61434983 93.18945312 148.859375 C97.46229302 144.57555918 101.73225899 140.28889528 106 136 C111.8797505 140.87724437 117.26880817 146.13886878 122.65234375 151.5546875 C123.55247696 152.45623566 124.45261017 153.35778381 125.38002014 154.28665161 C127.75072823 156.66198217 130.11924515 159.03945405 132.48669434 161.41802979 C134.91180728 163.85344717 137.33982085 166.28596912 139.76757812 168.71875 C144.51437128 173.47652769 149.25829281 178.2371538 154 183 C152.38350241 187.07820703 149.46400614 189.78305905 146.38867188 192.79077148 C145.81613174 193.35878479 145.24359161 193.9267981 144.65370178 194.51202393 C143.41234885 195.74243434 142.16872881 196.97056077 140.92311096 198.19665337 C138.95141942 200.13815901 136.98649957 202.08628689 135.02331543 204.03639221 C129.44115752 209.5788146 123.84640185 215.10845861 118.24853516 220.63500977 C114.82292434 224.01789753 111.40465988 227.4080709 107.99061584 230.80262947 C106.68896055 232.09372096 105.38439883 233.38188912 104.07688904 234.66705132 C102.24818684 236.46454477 100.42888671 238.27108321 98.61132812 240.07983398 C97.79928673 240.87098351 97.79928673 240.87098351 96.97084045 241.67811584 C93.47126517 245.18639027 91.23714347 248.20368326 90.8125 253.2109375 C91.34554516 259.36316707 93.31945619 262.96031304 98 267 C101.69313453 269.39554672 105.3246135 269.37992792 109.58056641 268.70033264 C118.49018044 266.12134327 126.33296494 254.79406691 132.8125 248.28515625 C134.03395984 247.06182777 135.25564329 245.83872252 136.47753906 244.61582947 C139.6689961 241.42058239 142.85743667 238.22234214 146.04522705 235.0234375 C149.30825862 231.75011567 152.57417744 228.47967726 155.83984375 225.20898438 C162.22936797 218.80878491 168.61570451 212.40541493 175 206 C178.51084156 207.65300735 180.75749433 209.53739718 183.484375 212.32421875 C184.76441406 213.62069336 184.76441406 213.62069336 186.0703125 214.94335938 C186.95460938 215.84892578 187.83890625 216.75449219 188.75 217.6875 C190.49229404 219.46469162 192.23705193 221.23947141 193.984375 223.01171875 C194.75491211 223.80022217 195.52544922 224.58872559 196.31933594 225.40112305 C198.4458948 227.46280056 200.59746351 229.4039141 202.83813477 231.3359375 C206.95975494 234.91173779 210.79221332 238.71360322 214.60546875 242.61328125 C216.01468838 244.03999568 217.42420208 245.46641968 218.83398438 246.89257812 C221.02276392 249.11243218 223.20909422 251.33454893 225.39038086 253.56176758 C227.5178444 255.73152851 229.65462003 257.89175452 231.79296875 260.05078125 C232.44202682 260.71846024 233.0910849 261.38613922 233.7598114 262.0740509 C237.55760179 265.893191 240.63520277 268.77177897 246.24609375 269.15234375 C251.88819769 268.59919631 255.04308098 267.33376845 259 263 C261.53355953 258.66843047 262.67591386 255.0398861 261.74365234 250.00152588 C258.71080204 241.83866804 249.18826069 235.12263129 243.04354858 229.09064484 C240.58654603 226.67614891 238.13922859 224.25193127 235.69120789 221.82833481 C231.1483143 217.33101926 226.6014221 212.83791726 222.03857422 208.36083984 C218.84915345 205.23063865 215.67193446 202.0885062 212.50256348 198.93801117 C211.29493318 197.74214226 210.08277549 196.55082761 208.86608887 195.36417389 C207.17384389 193.71272213 205.49757143 192.04653693 203.82421875 190.37597656 C203.31733017 189.88863541 202.81044159 189.40129425 202.28819275 188.89918518 C199.01985314 185.59153345 199.01985314 185.59153345 198.93144226 182.95729065 C200.37425875 180.31446554 202.15234793 178.44996422 204.27270508 176.30737305 C205.18067337 175.38349289 206.08864166 174.45961273 207.02412415 173.50773621 C208.02206125 172.50853218 209.02054358 171.50987244 210.01953125 170.51171875 C211.04014696 169.48400265 212.06046245 168.45598834 213.08049011 167.4276886 C215.21817204 165.27656706 217.36169407 163.13146972 219.5090332 160.98999023 C222.26344421 158.24148757 224.9991351 155.47514332 227.73032093 152.70358562 C229.83120466 150.57689373 231.94340917 148.46173646 234.05905724 146.34974098 C235.07293613 145.33416568 236.08282176 144.31458777 237.08863258 143.29102135 C238.49353512 141.86406068 239.91593756 140.45439285 241.33911133 139.0456543 C242.14439774 138.23831345 242.94968414 137.4309726 243.77937317 136.59916687 C246 135 246 135 248.10673523 135.07868958 C251.41760761 136.68984365 253.74704615 139.48722662 256.25 142.125 C259.66488857 145.67977557 263.08853155 149.12826349 266.83203125 152.33984375 C271.6150485 156.46158787 276.01159112 160.93909466 280.4375 165.4375 C282.03809217 167.06343804 283.64083187 168.68726587 285.24609375 170.30859375 C285.94404053 171.01814209 286.6419873 171.72769043 287.36108398 172.45874023 C288.74644888 174.11417836 288.74644888 174.11417836 290 174 C294.23994411 146.57714358 294.23994411 146.57714358 285.48900032 121.23283195 C277.57797372 111.05544897 267.93222606 102.43667113 258.30566406 93.92431641 C254.10317913 90.15393186 250.04612764 86.23256657 245.96679688 82.33007812 C240.01042659 76.68801549 234.02554164 71.08013881 227.90161133 65.61987305 C227.27438675 65.04536911 226.64716217 64.47086517 226.00093079 63.87895203 C223.44685957 61.63750627 221.61953398 60.10273712 218.21986389 59.53897095 C212.98697242 60.62575604 209.2364383 66.01764884 205.625 69.6875 C204.68527344 70.59951172 203.74554688 71.51152344 202.77734375 72.45117188 C201.89433594 73.33740234 201.01132813 74.22363281 200.1015625 75.13671875 C199.29025879 75.94842529 198.47895508 76.76013184 197.64306641 77.59643555 C195.73992662 79.87438268 195.73992662 79.87438268 196.07739258 82.61108398 C197.01372544 85.03553942 197.81187285 86.29283129 199.66015625 88.0859375 C200.47395752 88.88813721 200.47395752 88.88813721 201.30419922 89.70654297 C201.88443848 90.25713379 202.46467773 90.80772461 203.0625 91.375 C203.65305176 91.95008301 204.24360352 92.52516602 204.85205078 93.11767578 C208.53427091 96.67900222 212.30530879 100.11796427 216.2109375 103.43359375 C219.29363987 106.13264102 222.14451567 109.06420518 225 112 C223.48387099 115.54879679 221.40531305 117.86439389 218.70556641 120.60083008 C217.8176944 121.50468948 216.92982239 122.40854889 216.01504517 123.33979797 C215.04436437 124.31685292 214.07319155 125.29341928 213.1015625 126.26953125 C212.1050165 127.27504587 211.10854748 128.28063679 210.1121521 129.28630066 C208.02606843 131.38884745 205.93565456 133.48698431 203.84277344 135.58276367 C201.15850536 138.27243433 198.49079279 140.97791552 195.82671547 143.6875658 C193.77625023 145.76771822 191.71467752 147.83658121 189.64982224 149.90244102 C188.6609199 150.89555685 187.67615046 151.89280556 186.69560623 152.89417458 C185.32665547 154.28988007 183.94032154 155.66847183 182.55322266 157.04614258 C181.76871735 157.83571854 180.98421204 158.62529449 180.17593384 159.438797 C178 161 178 161 176.00297546 161.00842285 C173.32100419 159.65815114 171.53569598 157.93295044 169.39916992 155.8190918 C168.49531052 154.93114426 167.59145111 154.04319672 166.66020203 153.12834167 C165.68309273 152.1524993 164.70652771 151.17611169 163.73046875 150.19921875 C162.72517278 149.20102337 161.7195787 148.20312814 160.71369934 147.20552063 C158.60965609 145.11491605 156.51163796 143.01847458 154.41723633 140.91821289 C151.72926399 138.22433203 149.02345922 135.54918185 146.3124342 132.87852764 C144.23206438 130.82396704 142.16323266 128.75808694 140.09755898 126.68876076 C139.10431217 125.69721024 138.10706317 124.70965236 137.10582542 123.72617149 C135.70999764 122.35240404 134.33146294 120.96113175 132.95385742 119.5690918 C132.16428146 118.78157028 131.37470551 117.99404877 130.561203 117.18266296 C129 115 129 115 129.08988953 112.89276123 C130.66711577 109.61259604 133.42478868 107.34080043 136.0390625 104.87890625 C137.27123464 103.68465871 138.50299307 102.48998419 139.734375 101.29492188 C141.68224297 99.42164996 143.63451481 97.5534699 145.59472656 95.69311523 C147.48514245 93.89313738 149.35660514 92.07509484 151.2265625 90.25390625 C151.81917877 89.70166885 152.41179504 89.14943146 153.02236938 88.58045959 C156.1874455 85.53584616 156.1874455 85.53584616 157.11572266 81.39941406 C154.81489208 76.45136967 150.58558758 72.97507212 146.75 69.1875 C145.89019531 68.30384766 145.03039062 67.42019531 144.14453125 66.50976562 C143.30792969 65.67509766 142.47132813 64.84042969 141.609375 63.98046875 C140.84592773 63.21629639 140.08248047 62.45212402 139.29589844 61.66479492 C137.15843698 59.87328 137.15843698 59.87328 134.78686523 59.54966736 C130.61372191 60.22401021 128.14955745 62.79089434 125.11425781 65.54052734 Z " fill="#00395A" transform="translate(0,692)"/>
<path d="M0 0 C111.87 0 223.74 0 339 0 C339 111.87 339 223.74 339 339 C227.13 339 115.26 339 0 339 C0 227.13 0 115.26 0 0 Z M76.69311523 74.19335938 C76.15372314 74.73798828 75.61433105 75.28261719 75.05859375 75.84375 C74.47529297 76.43027344 73.89199219 77.01679687 73.29101562 77.62109375 C72.37352539 78.55115234 72.37352539 78.55115234 71.4375 79.5 C70.82197266 80.12003906 70.20644531 80.74007813 69.57226562 81.37890625 C68.04594484 82.91705898 66.5226885 84.45825142 65 86 C69.29542654 91.14280385 73.80902798 95.91802554 78.5859375 100.61328125 C80.02486758 102.03958443 81.46366596 103.46602047 82.90234375 104.89257812 C85.15227267 107.1175408 87.40378225 109.34086052 89.65771484 111.56176758 C91.84643531 113.72046347 94.02904166 115.88519083 96.2109375 118.05078125 C96.89207611 118.71846024 97.57321472 119.38613922 98.2749939 120.0740509 C98.89629181 120.69197006 99.51758972 121.30988922 100.15771484 121.9465332 C100.70809418 122.48945511 101.25847351 123.03237701 101.82553101 123.5917511 C103 125 103 125 103 127 C101.86304688 127.59425781 100.72609375 128.18851563 99.5546875 128.80078125 C84.61749853 136.75774754 72.2890061 146.43830243 60 158 C75.23307837 173.53997189 94.95293694 188.5239806 116 195 C116.99 195 117.98 195 119 195 C113.37305316 201.68956166 107.26765606 207.85070826 101.0625 214 C100.0824469 214.97502386 99.1026276 215.9502828 98.12304688 216.92578125 C95.75097687 219.28616618 93.3765914 221.64416905 91 224 C86.11337084 219.94230301 81.56313118 215.66586569 77.125 211.125 C75.10381085 209.05889553 73.06800606 207.02005229 71 205 C70.67 205 70.34 205 70 205 C70 222.82 70 240.64 70 259 C87.82 259 105.64 259 124 259 C119.40819554 253.58030665 119.40819554 253.58030665 114.5703125 248.47265625 C114.003125 247.90869141 113.4359375 247.34472656 112.8515625 246.76367188 C112.28179687 246.20228516 111.71203125 245.64089844 111.125 245.0625 C110.53203125 244.47404297 109.9390625 243.88558594 109.328125 243.27929688 C107.88773534 241.85052326 106.4442033 240.42491868 105 239 C106.42245035 237.34089774 107.84502877 235.68190513 109.26821899 234.0234375 C110.36685377 232.73977703 111.46257063 231.45360882 112.55429077 230.1640625 C137.53907299 200.70989941 137.53907299 200.70989941 149.66015625 199.19140625 C155.17736509 199.19437788 160.44383166 199.96374919 165.76464844 201.41625977 C168.86515106 202.11668944 168.86515106 202.11668944 171.50093079 201.80563354 C175.60645893 201.48976362 178.7352201 201.25307803 182.35769653 203.39234924 C184.70835785 205.43958507 186.82897723 207.59001526 188.94921875 209.875 C189.73271194 210.67405762 190.51620514 211.47311523 191.32344055 212.29638672 C193.80527089 214.83950122 196.24600373 217.41819891 198.6875 220 C200.36916664 221.73687491 202.0533877 223.47128048 203.74023438 225.203125 C207.8568281 229.44060716 211.94039095 233.70793272 216 238 C209.75558021 245.37892585 209.75558021 245.37892585 206.5703125 248.4921875 C206.003125 249.05164062 205.4359375 249.61109375 204.8515625 250.1875 C204.28179688 250.744375 203.71203125 251.30125 203.125 251.875 C201.05889553 253.89618915 199.02005229 255.93199394 197 258 C197 258.33 197 258.66 197 259 C214.82 259 232.64 259 251 259 C251 241.18 251 223.36 251 205 C245.73517781 209.51270473 240.93148159 214.03317321 236.27539062 219.11523438 C234.76953125 220.68359375 234.76953125 220.68359375 232 223 C228.33748304 222.95776097 226.37061986 220.71168105 223.88763428 218.2275238 C223.38330872 217.70771439 222.87898315 217.18790497 222.359375 216.65234375 C221.83232971 216.12105362 221.30528442 215.58976349 220.76226807 215.04237366 C219.08432813 213.34767175 217.41713272 211.64282783 215.75 209.9375 C214.61267255 208.78512255 213.47465934 207.63342148 212.3359375 206.48242188 C209.54928008 203.66272816 206.77221208 200.83389412 204 198 C204.63341309 197.74750488 205.26682617 197.49500977 205.91943359 197.23486328 C208.61399716 196.15915995 211.30717643 195.08005112 214 194 C214.68223633 193.72768555 215.36447266 193.45537109 216.06738281 193.17480469 C224.88612295 189.61652932 232.93170408 185.47414794 240.85986328 180.20068359 C245.71363355 177 245.71363355 177 249 177 C250.5859375 178.109375 250.5859375 178.109375 252.375 179.75 C253.42300781 180.70132812 253.42300781 180.70132812 254.4921875 181.671875 C255.31976562 182.44015625 256.14734375 183.2084375 257 184 C258.04401949 184.96381399 259.08830695 185.92733778 260.1328125 186.890625 C261.82055056 188.44830925 263.50742164 190.00688074 265.19165039 191.56835938 C269.39253632 195.45918725 273.6541278 199.2712154 278 203 C282.55293704 196.17059444 281.69809144 186.94635998 281 179 C279.57648191 172.50133048 276.78421033 167.08823866 272.85546875 161.75390625 C272 160 272 160 272.2109375 158.140625 C273.20301309 155.44925163 274.29853832 152.82029271 275.4375 150.1875 C280.51344659 138.075443 282.00651688 127.84602665 279 115 C275.54894544 116.50491192 273.13275903 118.51583979 270.375 121.0625 C269.50101563 121.86300781 268.62703125 122.66351562 267.7265625 123.48828125 C266.82679688 124.31714844 265.92703125 125.14601563 265 126 C262.42654935 128.3357272 259.84731091 130.66348452 257.25 132.97265625 C255.88825122 134.19964864 254.54757045 135.45141966 253.25 136.74609375 C251.75 138.1875 251.75 138.1875 249 140 C243.41804897 138.74639036 238.44381614 135.7456996 233.4375 133.0625 C232.18163086 132.39831055 232.18163086 132.39831055 230.90039062 131.72070312 C226.86910953 129.5789853 222.88218173 127.40552365 219 125 C223.24210136 119.93288701 227.67717089 115.18776629 232.3671875 110.53515625 C233.04677521 109.85698349 233.72636292 109.17881073 234.42654419 108.48008728 C236.57367002 106.33850859 238.72426627 104.20045471 240.875 102.0625 C242.34137773 100.60114411 243.8075258 99.13955774 245.2734375 97.67773438 C248.84631 94.11582065 252.42229684 90.55706135 256 87 C255.0449028 85.87879843 254.08882049 84.75843599 253.13232422 83.63842773 C252.6000119 83.01443588 252.06769958 82.39044403 251.51925659 81.74754333 C249.79809702 79.76775864 247.998427 77.89845846 246.125 76.0625 C245.08333333 75.04166667 244.04166667 74.02083333 243 73 C237.29844088 77.67723674 232.32808491 82.790865 227.3125 88.1875 C224.75811861 90.87185875 222.19603734 93.54871636 219.63330078 96.22509766 C217.87734666 98.07547542 216.13603409 99.93985811 214.40966797 101.81787109 C199.18030747 118.33780632 199.18030747 118.33780632 193.02587891 118.74926758 C189.18317159 118.182181 185.71294023 117.12844262 182 116 C179.12943856 115.70135596 176.28266444 115.68617961 173.3984375 115.69921875 C172.66054993 115.6952005 171.92266235 115.69118225 171.16241455 115.68704224 C169.65532673 115.68081393 168.14820762 115.67994791 166.64111328 115.68432617 C164.39695745 115.68746925 162.15414924 115.6639653 159.91015625 115.63867188 C158.40625188 115.63620924 156.90234346 115.63557439 155.3984375 115.63671875 C154.6403479 115.62814346 153.8822583 115.61956818 153.10119629 115.61073303 C148.77450632 115.64856465 145.15043685 116.15537345 141.02539062 117.49194336 C135.55253342 119.13626204 130.66235199 120.38483501 125 119 C116.07033981 113.7680246 109.15843258 105.4953124 102.29248047 97.88214111 C99.71058135 95.04554611 97.06031252 92.27446851 94.4140625 89.49804688 C89.79323165 84.63893418 85.23765749 79.72682041 80.72528076 74.76652527 C79.87126678 73.89209526 79.87126678 73.89209526 79 73 C77.82811526 72.88761578 77.82811526 72.88761578 76.69311523 74.19335938 Z " fill="#00395A" transform="translate(357,1049)"/>
<path d="M0 0 C111.87 0 223.74 0 339 0 C339 111.87 339 223.74 339 339 C227.13 339 115.26 339 0 339 C0 227.13 0 115.26 0 0 Z M157 59 C154.67644998 62.61793328 154.76876557 65.71433712 154.8046875 69.953125 C154.80893234 70.94345734 154.80893234 70.94345734 154.81326294 71.95379639 C154.82441585 74.05271897 154.84951054 76.15120742 154.875 78.25 C154.88503616 79.67707715 154.8941609 81.10416102 154.90234375 82.53125 C154.92433889 86.02097328 154.95883464 89.51044423 155 93 C154.03977936 92.99555878 153.07955872 92.99111755 152.09024048 92.98654175 C143.05516568 92.9460545 134.0201092 92.91604396 124.98496437 92.89637566 C120.33954726 92.88592418 115.69420319 92.87174021 111.04882812 92.84912109 C106.56846775 92.8274412 102.08817778 92.81544166 97.60776901 92.81024551 C95.89568345 92.80654101 94.18360188 92.79930734 92.47154617 92.78853989 C90.07941514 92.77408932 87.68757758 92.77201933 85.29541016 92.77294922 C84.58259384 92.76575867 83.86977753 92.75856812 83.13536072 92.75115967 C79.12073876 92.65610973 79.12073876 92.65610973 76 95 C75.68866414 97.58744439 75.68866414 97.58744439 75.734375 100.59375 C75.73179687 101.70621094 75.72921875 102.81867188 75.7265625 103.96484375 C75.73429687 105.13144531 75.74203125 106.29804687 75.75 107.5 C75.74226563 108.66660156 75.73453125 109.83320312 75.7265625 111.03515625 C75.72914063 112.14761719 75.73171875 113.26007813 75.734375 114.40625 C75.73663086 115.43041016 75.73888672 116.45457031 75.74121094 117.50976562 C75.75366928 120.17382203 75.75366928 120.17382203 78 122 C80.46949072 122.18773265 82.82579983 122.25196303 85.29541016 122.22705078 C86.42238564 122.22748886 86.42238564 122.22748886 87.5721283 122.22793579 C90.06122292 122.22653987 92.55002003 122.21096658 95.0390625 122.1953125 C96.76256141 122.1915833 98.48606243 122.18873589 100.20956421 122.18673706 C104.75030347 122.1790933 109.2909152 122.15943848 113.831604 122.1373291 C118.46323928 122.11688664 123.09489513 122.10773877 127.7265625 122.09765625 C136.81776443 122.07619325 145.90887162 122.04204839 155 122 C154.96072388 123.01199463 154.96072388 123.01199463 154.9206543 124.04443359 C154.81557065 127.1543775 154.75132583 130.26394648 154.6875 133.375 C154.64560547 134.43589844 154.60371094 135.49679687 154.56054688 136.58984375 C154.40491396 146.73710988 157.78512614 153.79339111 164.125 161.625 C164.78757812 162.46289062 165.45015625 163.30078125 166.1328125 164.1640625 C167.92009126 166.35055734 167.92009126 166.35055734 171 166 C177.61358897 158.61233593 184.15648212 149.07140712 184.09765625 138.89453125 C184.09443359 137.91162109 184.09121094 136.92871094 184.08789062 135.91601562 C184.07951172 134.89185547 184.07113281 133.86769531 184.0625 132.8125 C184.05798828 131.77673828 184.05347656 130.74097656 184.04882812 129.67382812 C184.0370401 127.11582734 184.02058515 124.55794267 184 122 C184.96022064 122.00444122 185.92044128 122.00888245 186.90975952 122.01345825 C195.94483432 122.0539455 204.9798908 122.08395604 214.01503563 122.10362434 C218.66045274 122.11407582 223.30579681 122.12825979 227.95117188 122.15087891 C232.43153225 122.1725588 236.91182222 122.18455834 241.39223099 122.18975449 C243.10431655 122.19345899 244.81639812 122.20069266 246.52845383 122.21146011 C248.92058486 122.22591068 251.31242242 122.22798067 253.70458984 122.22705078 C254.77381432 122.23783661 254.77381432 122.23783661 255.86463928 122.24884033 C259.87926124 122.34389027 259.87926124 122.34389027 263 120 C263.31133586 117.41255561 263.31133586 117.41255561 263.265625 114.40625 C263.26820313 113.29378906 263.27078125 112.18132812 263.2734375 111.03515625 C263.26570312 109.86855469 263.25796875 108.70195313 263.25 107.5 C263.25773438 106.33339844 263.26546875 105.16679688 263.2734375 103.96484375 C263.27085937 102.85238281 263.26828125 101.73992187 263.265625 100.59375 C263.26224121 99.05750977 263.26224121 99.05750977 263.25878906 97.49023438 C263.24633072 94.82617797 263.24633072 94.82617797 261 93 C258.53050928 92.81226735 256.17420017 92.74803697 253.70458984 92.77294922 C252.57761436 92.77251114 252.57761436 92.77251114 251.4278717 92.77206421 C248.93877708 92.77346013 246.44997997 92.78903342 243.9609375 92.8046875 C242.23743859 92.8084167 240.51393757 92.81126411 238.79043579 92.81326294 C234.24969653 92.8209067 229.7090848 92.84056152 225.168396 92.8626709 C220.53676072 92.88311336 215.90510487 92.89226123 211.2734375 92.90234375 C202.18223557 92.92380675 193.09112838 92.95795161 184 93 C184.01571045 92.18845459 184.0314209 91.37690918 184.04760742 90.54077148 C184.11022907 86.83975276 184.14907772 83.13884583 184.1875 79.4375 C184.21263672 78.16068359 184.23777344 76.88386719 184.26367188 75.56835938 C184.37552583 66.35513014 184.37552583 66.35513014 181 58 C176.23697992 53.58549359 172.99196564 52.53587579 166.61328125 52.58203125 C162.30771997 53.27066362 159.68534178 55.67383803 157 59 Z M89.40576172 150.25292969 C86.83744181 155.27181395 84.02069259 160.1534353 81.25 165.0625 C80.05194034 167.21085776 78.85402521 169.35929613 77.65625 171.5078125 C74.09510321 177.86182869 70.43499146 184.15471808 66.75 190.4375 C65.03809151 193.367667 63.32745596 196.29857112 61.61767578 199.22998047 C60.5588386 201.04307534 59.49741409 202.8546623 58.43310547 204.66455078 C57.00425971 207.10210302 55.59353501 209.54923868 54.1875 212 C53.77274414 212.69923584 53.35798828 213.39847168 52.93066406 214.11889648 C48.84525253 221.32272192 48.34837216 227.658554 50.5 235.75 C50.68232178 236.44246826 50.86464355 237.13493652 51.05249023 237.84838867 C54.77026197 250.9657526 63.04458389 262.56976483 74.984375 269.39453125 C88.25059145 276.42677955 101.771395 279.54899745 116.75 275.875 C131.94371233 270.92398462 143.904958 262.29879255 151.53808594 248.19775391 C156.08679471 239.21589814 158.30423347 230.07450651 157 220 C155.43107087 215.94915702 153.23101749 212.45049549 150.875 208.8125 C149.58087856 206.7098422 148.28928865 204.60562459 147 202.5 C146.33484375 201.42878906 145.6696875 200.35757813 144.984375 199.25390625 C141.79542841 194.02478714 138.83871228 188.67145031 135.875 183.3125 C134.7144909 181.22863776 133.55304137 179.14529894 132.390625 177.0625 C131.82666016 176.051875 131.26269531 175.04125 130.68164062 174 C126.61501695 166.74525672 122.46958808 159.53516574 118.33105469 152.32128906 C116.29989672 148.77905686 114.27497272 145.23327044 112.25 141.6875 C111.61578125 140.57761719 110.9815625 139.46773437 110.328125 138.32421875 C109.88984375 137.55722656 109.4515625 136.79023437 109 136 C97.121482 132.54484172 93.99960015 141.11323025 89.40576172 150.25292969 Z M230 136 C229.62939453 136.6712793 229.25878906 137.34255859 228.87695312 138.03417969 C219.74626602 154.55770587 210.47728883 170.99479817 201.08203125 187.36962891 C197.76217044 193.15668172 194.45077227 198.94857629 191.13986206 204.74075317 C190.08151987 206.59173529 189.02237876 208.44225845 187.96313477 210.29272461 C187.32690186 211.40526611 186.69066895 212.51780762 186.03515625 213.6640625 C185.4719165 214.64842285 184.90867676 215.6327832 184.32836914 216.64697266 C180.75644728 222.97415201 181.40738036 229.41358862 183.125 236.375 C187.82976479 251.76847005 196.51578761 263.32339306 210.58984375 271.33984375 C223.37630403 277.56463827 237.07152962 279.2498234 250.8125 275.375 C267.17301632 269.60427333 278.25148444 260.15262871 285.8125 244.5 C287.99559387 239.41568928 289.29029494 234.47892306 290 229 C290.165 227.865625 290.33 226.73125 290.5 225.5625 C289.99405204 221.95762075 289.16834188 220.19470858 287.40625 217.0703125 C286.86033203 216.09360596 286.31441406 215.11689941 285.75195312 214.1105957 C285.17380859 213.08409912 284.59566406 212.05760254 284 211 C282.87353115 208.95523559 281.74855793 206.9096466 280.625 204.86328125 C273.94101694 192.76845475 267.16194241 180.7454011 260.15942383 168.83105469 C255.34079921 160.62322757 250.6469737 152.34867926 245.99755859 144.04394531 C245.48660645 143.13354492 244.9756543 142.22314453 244.44921875 141.28515625 C243.99893311 140.47957275 243.54864746 139.67398926 243.0847168 138.84399414 C242.13262078 137.0489686 242.13262078 137.0489686 241 136 C239.14712498 135.92773498 237.29166122 135.9161878 235.4375 135.9375 C234.42558594 135.94652344 233.41367187 135.95554687 232.37109375 135.96484375 C231.58863281 135.97644531 230.80617188 135.98804688 230 136 Z " fill="#00395A" transform="translate(357,692)"/>
<path d="M0 0 C1.32 0 2.64 0 4 0 C5.36523438 1.53442383 5.36523438 1.53442383 6.59375 3.70703125 C7.29322754 4.91286865 7.29322754 4.91286865 8.00683594 6.14306641 C8.74595215 7.46443604 8.74595215 7.46443604 9.5 8.8125 C10.57608228 10.67175668 11.65425705 12.52980365 12.734375 14.38671875 C13.28029297 15.33208496 13.82621094 16.27745117 14.38867188 17.25146484 C16.74576945 21.27210188 19.23832546 25.19973471 21.75 29.125 C26.50918114 36.602474 31.17672137 44.132939 35.8125 51.6875 C41.00521925 60.14820019 46.22806129 68.58842792 51.5 77 C56.7068803 85.30893904 61.86918086 93.64388181 67 102 C72.81209212 111.46500435 78.67087803 120.89926576 84.56640625 130.3125 C89.09996382 137.55280185 93.60302233 144.81138857 98.09326172 152.07861328 C102.14376869 158.62912912 106.22470421 165.16020461 110.3125 171.6875 C118.27755861 184.41590518 126.16842012 197.18904371 134 210 C134.54253418 210.8863916 135.08506836 211.7727832 135.64404297 212.68603516 C145.25949447 228.43122263 154.27972171 244.50535356 163.11099243 260.7016449 C163.6518429 261.69346992 164.19269337 262.68529493 164.74993324 263.70717525 C165.36871629 264.8421235 165.36871629 264.8421235 166 266 C165.97021844 265.37232161 165.94043688 264.74464321 165.90975285 264.09794426 C164.73772628 238.10967054 164.8685484 212.11930605 164.89860606 186.11063242 C164.90493895 179.68857335 164.90545114 173.26651361 164.90663147 166.8444519 C164.90936743 156.10153822 164.91557551 145.35863274 164.92456055 134.61572266 C164.93379054 123.56819698 164.94084375 112.52067331 164.94506836 101.47314453 C164.94533108 100.78804326 164.94559381 100.10294199 164.94586449 99.39708008 C164.94716987 95.95889459 164.9484335 92.52070909 164.94967639 89.08252358 C164.95998246 60.7216772 164.97782369 32.36083938 165 4 C174.57 4 184.14 4 194 4 C194 119.83 194 235.66 194 355 C192.68 355 191.36 355 190 355 C188.16333008 352.69042969 188.16333008 352.69042969 186.26953125 349.421875 C185.74838242 348.53775436 185.74838242 348.53775436 185.21670532 347.63577271 C184.0684422 345.68142347 182.94094232 343.71584899 181.8125 341.75 C181.01020026 340.37809961 180.20622172 339.00717973 179.40063477 337.63720703 C177.73930826 334.81036165 176.0841034 331.98006504 174.43261719 329.14746094 C171.1817702 323.58713192 167.83726108 318.0847863 164.48202515 312.58703613 C163.07567604 310.28194995 161.67333262 307.97443751 160.27085876 305.66699219 C159.21726799 303.93367573 158.16312809 302.20069425 157.10888672 300.46777344 C153.92374023 295.23122358 150.74385009 289.99148214 147.56350708 284.75201416 C145.79254806 281.8345486 144.02125744 278.91728439 142.25 276 C141.54166507 274.8333343 140.83333174 273.66666763 140.125 272.5 C139.774375 271.9225 139.42375 271.345 139.0625 270.75 C84.875 181.5 84.875 181.5 83.81257629 179.75010681 C83.10401094 178.58307057 82.39542329 177.41604787 81.68681335 176.2490387 C79.919347 173.33813701 78.15226491 170.42700343 76.38598633 167.51538086 C73.1587428 162.19629764 69.9283386 156.87924088 66.68423462 151.57041931 C58.42779849 138.05896918 50.28656242 124.5001419 42.51953125 110.69921875 C40.25189748 106.67110837 37.97274266 102.64953035 35.6953125 98.62695312 C34.04650565 95.71174342 32.39952316 92.79551968 30.75341797 89.87878418 C30.2372995 88.96429253 29.72118103 88.04980087 29.18942261 87.10759735 C28.79691315 86.41209023 28.40440369 85.7165831 28 85 C28.02978156 85.71587752 28.05956312 86.43175505 28.09024715 87.16932583 C29.16711521 114.24185205 29.13267025 141.30545102 29.10139394 168.39547849 C29.09505072 174.83753935 29.09454808 181.27960092 29.09336853 187.72166443 C29.09063493 198.49372749 29.0844317 209.26578234 29.07543945 220.0378418 C29.06620373 231.11336227 29.05915339 242.18888073 29.05493164 253.2644043 C29.05453756 254.29535444 29.05453756 254.29535444 29.05413551 255.34713186 C29.05283009 258.79648951 29.05156648 262.24584718 29.05032361 265.69520485 C29.04002426 294.13014165 29.02218841 322.56507017 29 351 C19.43 351 9.86 351 0 351 C0 235.17 0 119.34 0 0 Z " fill="#00395A" transform="translate(0,0)"/>
<path d="M0 0 C9.9 0 19.8 0 30 0 C30 62.37 30 124.74 30 189 C73.23 189 116.46 189 161 189 C161 126.63 161 64.26 161 0 C170.9 0 180.8 0 191 0 C192.74250408 1.74250408 192.12547365 4.13807308 192.12584114 6.50824738 C192.12844889 7.7113932 192.13105664 8.91453902 192.13374341 10.15414381 C192.13158088 11.50644921 192.12932421 12.85875447 192.12698364 14.21105957 C192.1281345 15.63426647 192.12972178 17.05747306 192.13171089 18.48067904 C192.13590914 22.41004003 192.1338113 26.33937692 192.13072467 30.26873803 C192.12847279 34.49918298 192.13194911 38.72962364 192.13470459 42.96006775 C192.13916357 51.25481286 192.13818525 59.54954895 192.13529195 67.84429443 C192.13303842 74.58244074 192.13272518 81.3205845 192.13381577 88.05873108 C192.133969 89.01580649 192.13412223 89.97288191 192.13428011 90.95895961 C192.13459982 92.90291735 192.13492403 94.84687508 192.1352527 96.79083282 C192.13810787 115.04204164 192.13481989 133.29324544 192.12945233 151.54445344 C192.12498426 167.22283475 192.12576018 182.90120866 192.13037109 198.57958984 C192.13571621 216.76313191 192.13783317 234.94666957 192.13475883 253.13021231 C192.13444026 255.06723118 192.13412589 257.00425005 192.13381577 258.94126892 C192.13366149 259.89445126 192.13350721 260.84763361 192.13334826 261.82970026 C192.13248292 268.56388185 192.13394636 275.29806066 192.13629532 282.03224182 C192.13909282 290.23302804 192.13835611 298.43380468 192.13301457 306.63458979 C192.13037689 310.82297711 192.12937363 315.01134842 192.13266373 319.19973564 C192.13562532 323.02766748 192.13403619 326.85556837 192.12868617 330.68349737 C192.1275614 332.07445826 192.12815449 333.46542173 192.13056196 334.856381 C192.13356587 336.73483646 192.12991258 338.61329917 192.12584114 340.49175262 C192.12567879 341.53885894 192.12551644 342.58596526 192.12534916 343.66480207 C192 346 192 346 191 347 C181.1 347 171.2 347 161 347 C161 303.77 161 260.54 161 216 C117.77 216 74.54 216 30 216 C30 259.23 30 302.46 30 347 C20.1 347 10.2 347 0 347 C-1.74250408 345.25749592 -1.12547365 342.86192692 -1.12584114 340.49175262 C-1.12844889 339.2886068 -1.13105664 338.08546098 -1.13374341 336.84585619 C-1.13158088 335.49355079 -1.12932421 334.14124553 -1.12698364 332.78894043 C-1.1281345 331.36573353 -1.12972178 329.94252694 -1.13171089 328.51932096 C-1.13590914 324.58995997 -1.1338113 320.66062308 -1.13072467 316.73126197 C-1.12847279 312.50081702 -1.13194911 308.27037636 -1.13470459 304.03993225 C-1.13916357 295.74518714 -1.13818525 287.45045105 -1.13529195 279.15570557 C-1.13303842 272.41755926 -1.13272518 265.6794155 -1.13381577 258.94126892 C-1.133969 257.98419351 -1.13412223 257.02711809 -1.13428011 256.04104039 C-1.13459982 254.09708265 -1.13492403 252.15312492 -1.1352527 250.20916718 C-1.13810787 231.95795836 -1.13481989 213.70675456 -1.12945233 195.45554656 C-1.12498426 179.77716525 -1.12576018 164.09879134 -1.13037109 148.42041016 C-1.13571621 130.23686809 -1.13783317 112.05333043 -1.13475883 93.86978769 C-1.13444026 91.93276882 -1.13412589 89.99574995 -1.13381577 88.05873108 C-1.13366149 87.10554874 -1.13350721 86.15236639 -1.13334826 85.17029974 C-1.13248292 78.43611815 -1.13394636 71.70193934 -1.13629532 64.96775818 C-1.13909282 56.76697196 -1.13835611 48.56619532 -1.13301457 40.36541021 C-1.13037689 36.17702289 -1.12937363 31.98865158 -1.13266373 27.80026436 C-1.13562532 23.97233252 -1.13403619 20.14443163 -1.12868617 16.31650263 C-1.1275614 14.92554174 -1.12815449 13.53457827 -1.13056196 12.143619 C-1.13356587 10.26516354 -1.12991258 8.38670083 -1.12584114 6.50824738 C-1.12567879 5.46114106 -1.12551644 4.41403474 -1.12534916 3.33519793 C-1 1 -1 1 0 0 Z " fill="#00395A" transform="translate(253,4)"/>
<path d="M0 0 C9.9 0 19.8 0 30 0 C30 62.37 30 124.74 30 189 C73.23 189 116.46 189 161 189 C160.98839844 175.44035156 160.97679687 161.88070312 160.96484375 147.91015625 C160.95973743 139.34700502 160.95488244 130.78385489 160.95117188 122.22070312 C160.94522825 108.6130333 160.93822482 95.00536964 160.92456055 81.39770508 C160.91461557 71.48923136 160.90814702 61.58076263 160.90591151 51.67228407 C160.90460408 46.42237095 160.90151624 41.17247211 160.89426994 35.92256355 C160.88751266 30.98723004 160.88538244 26.05191675 160.88689232 21.11657906 C160.88661586 19.2996459 160.88460901 17.4827121 160.88079453 15.66578293 C160.87586182 13.19631711 160.87700013 10.72692894 160.87974548 8.25746155 C160.87537622 7.16458339 160.87537622 7.16458339 160.87091869 6.04962689 C160.88587879 1.11412121 160.88587879 1.11412121 162 0 C171.9 0 181.8 0 192 0 C192 114.51 192 229.02 192 347 C182.1 347 172.2 347 162 347 C161 346 161 346 160.87695217 343.84669399 C160.87787396 342.88895108 160.87879576 341.93120817 160.87974548 340.94444275 C160.87767924 339.30505312 160.87767924 339.30505312 160.87557125 337.63254452 C160.87916936 336.41825551 160.88276747 335.2039665 160.88647461 333.95288086 C160.88635407 332.66417619 160.88623354 331.37547152 160.88610935 330.04771519 C160.88588288 326.55044491 160.89169374 323.05320859 160.89871979 319.55594635 C160.90439964 316.27855012 160.90468208 313.00115545 160.90539551 309.72375488 C160.91065032 300.12833206 160.92461137 290.53291561 160.9375 280.9375 C160.958125 259.508125 160.97875 238.07875 161 216 C117.77 216 74.54 216 30 216 C30 259.23 30 302.46 30 347 C20.1 347 10.2 347 0 347 C0 232.49 0 117.98 0 0 Z " fill="#00395A" transform="translate(503,4)"/>
<path d="M0 0 C2.75717382 2.45751459 4.32369527 5.12260882 6.08203125 8.35546875 C6.67765869 9.44142334 7.27328613 10.52737793 7.88696289 11.64624023 C8.20069855 12.22332733 8.5144342 12.80041443 8.837677 13.39498901 C10.50012947 16.45191763 12.17900487 19.49976764 13.859375 22.546875 C14.20235123 23.16920517 14.54532745 23.79153534 14.8986969 24.432724 C18.87889459 31.62908154 23.0478169 38.71444283 27.25512695 45.7800293 C31.17889924 52.41876175 34.52874091 59.05748182 38 66 C13.25 66 -11.5 66 -37 66 C-35.56386092 61.69158276 -34.47293907 58.78934128 -32.234375 55.04296875 C-31.68080322 54.10735107 -31.12723145 53.1717334 -30.55688477 52.20776367 C-29.66247681 50.71273315 -29.66247681 50.71273315 -28.75 49.1875 C-22.97177034 39.42142495 -17.35800573 29.57913598 -11.88378906 19.6394043 C-8.1633077 12.92793679 -4.19006346 6.42864439 0 0 Z " fill="#00395A" transform="translate(460,843)"/>
<path d="M0 0 C2.98885268 2.77737346 5.01050908 5.43928991 6.9609375 9.015625 C7.50814453 10.00804199 8.05535156 11.00045898 8.61914062 12.02294922 C9.19857422 13.08787598 9.77800781 14.15280273 10.375 15.25 C11.62049441 17.50886195 12.86794417 19.76664669 14.1171875 22.0234375 C14.75624023 23.17811523 15.39529297 24.33279297 16.05371094 25.52246094 C19.67498818 31.99279122 23.4393152 38.37933245 27.20458984 44.76660156 C38 63.12876778 38 63.12876778 38 66 C13.25 66 -11.5 66 -37 66 C-33.05011433 58.10022866 -29.0631456 50.49679266 -24.5625 42.9375 C-18.46483214 32.60110838 -12.58819829 22.15713306 -6.79907227 11.64624023 C-6.20022217 10.56028564 -5.60137207 9.47433105 -4.984375 8.35546875 C-4.45553711 7.39278076 -3.92669922 6.43009277 -3.38183594 5.43823242 C-2.32932029 3.58108157 -1.18409959 1.77614938 0 0 Z " fill="#00395A" transform="translate(592,843)"/>
</svg>
